<svg width="239" height="198" viewBox="0 0 239 198" fill="none" xmlns="http://www.w3.org/2000/svg">
<g filter="url(#filter0_d_9_9)">
<path d="M117.99 3.35254C119.793 1.80344 122.458 1.80344 124.262 3.35254L132.252 10.2148C133.654 11.4184 135.544 11.8842 137.344 11.4697L147.609 9.10645C149.926 8.57333 152.285 9.81174 153.162 12.0215L157.048 21.8115C157.73 23.5283 159.186 24.8193 160.973 25.2891L171.16 27.9668C173.46 28.5714 174.973 30.7646 174.723 33.1289L173.615 43.6025C173.42 45.4395 174.11 47.2597 175.474 48.5059L183.249 55.6113C185.004 57.2152 185.326 59.8606 184.006 61.8379L178.156 70.5977C177.131 72.1338 176.896 74.0657 177.525 75.8027L181.108 85.708C181.916 87.9438 180.971 90.4351 178.883 91.5723L169.633 96.6104C168.011 97.4939 166.905 99.0958 166.655 100.926L165.224 111.361C164.901 113.717 162.907 115.484 160.53 115.521L149.997 115.683C148.15 115.711 146.426 116.616 145.354 118.12L139.238 126.695C137.857 128.631 135.27 129.269 133.148 128.196L123.747 123.445C122.099 122.612 120.152 122.612 118.503 123.445L109.103 128.196C106.981 129.269 104.394 128.631 103.013 126.695L96.8967 118.12C95.824 116.616 94.1003 115.711 92.2532 115.683L81.7219 115.521C79.3445 115.484 77.3495 113.717 77.0266 111.361L75.5969 100.926C75.346 99.0956 74.2397 97.4939 72.6174 96.6104L63.3674 91.5723C61.2796 90.435 60.3351 87.9438 61.1438 85.708L64.7268 75.8027C65.355 74.0657 65.1197 72.1338 64.094 70.5977L58.2454 61.8379C56.925 59.8606 57.246 57.2152 59.0012 55.6113L66.7766 48.5059C68.1403 47.2597 68.8304 45.4396 68.636 43.6025L67.5276 33.1289C67.2774 30.7645 68.7915 28.5713 71.0911 27.9668L81.2776 25.2891C83.0642 24.8194 84.5218 23.5285 85.2034 21.8115L89.0891 12.0215C89.9664 9.81167 92.3258 8.57304 94.6428 9.10645L104.907 11.4697C106.708 11.884 108.598 11.4184 109.999 10.2148L117.99 3.35254Z" fill="url(#paint0_linear_9_9)" stroke="#665000"/>
<circle cx="120.695" cy="65.8831" r="46.9363" fill="#785E03"/>
<mask id="mask0_9_9" style="mask-type:alpha" maskUnits="userSpaceOnUse" x="79" y="26" width="89" height="89">
<circle cx="123.264" cy="70.5646" r="44.2566" fill="#C28B37"/>
</mask>
<g mask="url(#mask0_9_9)">
<circle cx="120.695" cy="65.8831" r="46.9363" fill="#8A6B1B"/>
</g>
<circle cx="121.987" cy="65.4525" r="37.8935" fill="#B3881C"/>
<path d="M122.518 37.2566L130.954 54.1316L147.778 56.2351L149.669 56.4714L148.401 57.8933L136.804 70.8972L139.964 89.6003L140.291 91.5417L138.53 90.6609L121.623 82.2068L104.716 90.6609L102.952 91.5437L103.283 89.5984L106.471 70.8972L94.8468 57.8943L93.5753 56.4714L95.4679 56.2351L112.29 54.1316L120.729 37.2566L121.623 35.4675L122.518 37.2566Z" fill="url(#paint1_linear_9_9)" stroke="#AE8620" stroke-width="2"/>
<path d="M59.1179 123.154L59.1179 177.411L4.00004 177.411L20.176 150.282L4.00004 123.154L59.1179 123.154Z" fill="#983535"/>
<path d="M179.688 123.154L179.688 177.411L234.806 177.411L218.63 150.282L234.806 123.154L179.688 123.154Z" fill="#983535"/>
<path d="M43.616 137.795L59.1179 123.154V189.468H43.616V137.795Z" fill="#752727"/>
<path d="M195.19 138.656L179.688 123.154V189.468H195.19V138.656Z" fill="#752727"/>
<rect x="43.616" y="138.656" width="151.574" height="50.8118" fill="#CE4444"/>
<path d="M57.3876 174C57.1876 174 57.0876 173.9 57.0876 173.7V171.3C57.0876 171.1 57.1876 171 57.3876 171H62.4276V167.4H58.3836C58.1836 167.4 58.0836 167.3 58.0836 167.1V164.7C58.0836 164.5 58.1836 164.4 58.3836 164.4H62.4276V161.196H57.3876C57.1876 161.196 57.0876 161.096 57.0876 160.896V158.304C57.0876 158.104 57.1876 158.004 57.3876 158.004H63.3516C63.5356 158.004 63.6956 158.068 63.8316 158.196L66.2316 160.596C66.3596 160.732 66.4236 160.892 66.4236 161.076V163.476C66.4236 163.644 66.3836 163.764 66.3036 163.836L64.7436 165.624V166.38L66.3036 168.156C66.3836 168.236 66.4236 168.356 66.4236 168.516V170.916C66.4236 171.108 66.3596 171.268 66.2316 171.396L63.8316 173.796C63.6956 173.932 63.5356 174 63.3516 174H57.3876ZM73.3348 174C73.1348 174 73.0348 173.9 73.0348 173.7V158.304C73.0348 158.104 73.1348 158.004 73.3348 158.004H80.6548C80.8468 158.004 81.0068 158.068 81.1348 158.196L83.5348 160.596C83.6708 160.732 83.7388 160.892 83.7388 161.076V170.916C83.7388 171.108 83.6708 171.268 83.5348 171.396L81.1348 173.796C81.0068 173.932 80.8468 174 80.6548 174H73.3348ZM77.0428 170.796H79.2388C79.5748 170.796 79.7428 170.572 79.7428 170.124V161.88C79.7428 161.424 79.5748 161.196 79.2388 161.196H77.0428V170.796ZM89.5251 174C89.3411 174 89.1811 173.932 89.0451 173.796L86.6451 171.396C86.5091 171.268 86.4411 171.108 86.4411 170.916V163.884C86.4411 163.692 86.5091 163.532 86.6451 163.404L89.0451 161.004C89.1811 160.868 89.3411 160.8 89.5251 160.8H95.9451C96.1451 160.8 96.2451 160.9 96.2451 161.1V173.7C96.2451 173.9 96.1451 174 95.9451 174H93.4491C93.3451 174 93.2651 173.98 93.2091 173.94C93.1611 173.9 93.1051 173.852 93.0411 173.796L92.4411 173.196L91.8411 173.796C91.7131 173.932 91.5531 174 91.3611 174H89.5251ZM90.9291 171.204H91.7691C92.0251 171.204 92.2011 171.152 92.2971 171.048C92.3931 170.944 92.4411 170.76 92.4411 170.496V163.596H90.9291C90.6651 163.596 90.4851 163.648 90.3891 163.752C90.2931 163.856 90.2451 164.04 90.2451 164.304V170.496C90.2451 170.76 90.2931 170.944 90.3891 171.048C90.4851 171.152 90.6651 171.204 90.9291 171.204ZM102.497 177.996C102.297 177.996 102.197 177.896 102.197 177.696V175.824C102.197 175.672 102.257 175.584 102.377 175.56L104.141 175.116L105.377 174.456C105.497 174.392 105.557 174.268 105.557 174.084V172.116L104.441 173.16C104.305 173.296 104.145 173.364 103.961 173.364L101.921 173.436C101.737 173.436 101.577 173.372 101.441 173.244L99.2447 171.036C99.1087 170.908 99.0407 170.748 99.0407 170.556V161.1C99.0407 160.9 99.1407 160.8 99.3407 160.8H102.545C102.745 160.8 102.845 160.9 102.845 161.1V170.136C102.845 170.4 102.893 170.584 102.989 170.688C103.085 170.792 103.261 170.844 103.517 170.844H105.041V161.1C105.041 160.9 105.141 160.8 105.341 160.8H108.545C108.745 160.8 108.845 160.9 108.845 161.1V175.524C108.845 175.764 108.777 175.924 108.641 176.004L107.045 177.024L105.017 177.864C104.897 177.912 104.805 177.944 104.741 177.96C104.685 177.984 104.593 177.996 104.465 177.996H102.497ZM111.578 174C111.378 174 111.278 173.9 111.278 173.7V171.756C111.278 171.572 111.338 171.452 111.458 171.396L113.906 169.944V168.696L111.458 167.376C111.338 167.304 111.278 167.18 111.278 167.004V163.176C111.278 163.088 111.29 163.016 111.314 162.96C111.346 162.904 111.39 162.856 111.446 162.816L114.002 160.944C114.09 160.88 114.162 160.84 114.218 160.824C114.274 160.808 114.33 160.8 114.386 160.8H117.302C117.502 160.8 117.602 160.9 117.602 161.1V162.984C117.602 163.12 117.59 163.212 117.566 163.26C117.55 163.308 117.51 163.348 117.446 163.38L115.178 164.604V165.996L117.602 167.196C117.738 167.252 117.806 167.372 117.806 167.556V171.24C117.806 171.44 117.738 171.6 117.602 171.72L115.046 173.844C114.918 173.948 114.758 174 114.566 174H111.578ZM124.082 174C123.882 174 123.782 173.9 123.782 173.7V171.444C123.782 171.34 123.786 171.256 123.794 171.192C123.81 171.128 123.858 171.076 123.938 171.036L127.082 169.596V167.46L123.986 165.54C123.85 165.46 123.782 165.34 123.782 165.18V160.776C123.782 160.648 123.79 160.556 123.806 160.5C123.822 160.436 123.882 160.368 123.986 160.296L127.142 158.16C127.222 158.112 127.294 158.076 127.358 158.052C127.43 158.02 127.518 158.004 127.622 158.004H130.862C131.062 158.004 131.162 158.104 131.162 158.304V160.344C131.162 160.52 131.102 160.64 130.982 160.704L127.838 162V164.22L130.982 166.02C131.102 166.076 131.162 166.204 131.162 166.404V171.624C131.162 171.688 131.15 171.756 131.126 171.828C131.11 171.9 131.07 171.952 131.006 171.984L127.238 173.856C127.19 173.88 127.13 173.912 127.058 173.952C126.994 173.984 126.93 174 126.866 174H124.082ZM136.441 174C136.257 174 136.097 173.932 135.961 173.796L133.957 171.804C133.829 171.668 133.765 171.508 133.765 171.324V163.596H133.261C133.061 163.596 132.961 163.496 132.961 163.296V161.1C132.961 160.9 133.061 160.8 133.261 160.8H133.765V159.3C133.765 159.1 133.865 159 134.065 159H137.257C137.457 159 137.557 159.1 137.557 159.3V160.8H138.721C138.921 160.8 139.021 160.9 139.021 161.1V163.296C139.021 163.496 138.921 163.596 138.721 163.596H137.557V170.004C137.557 170.156 137.605 170.28 137.701 170.376L138.877 171.564C138.957 171.636 138.997 171.756 138.997 171.924V173.7C138.997 173.9 138.897 174 138.697 174H136.441ZM141.481 174C141.281 174 141.181 173.9 141.181 173.7V161.1C141.181 160.9 141.281 160.8 141.481 160.8H143.305C143.457 160.8 143.589 160.868 143.701 161.004L144.877 162.36L146.185 160.944C146.273 160.848 146.385 160.8 146.521 160.8H147.817C148.017 160.8 148.117 160.9 148.117 161.1V163.68C148.117 163.808 148.109 163.896 148.093 163.944C148.077 163.984 148.033 164.028 147.961 164.076L144.985 166.272V173.7C144.985 173.9 144.885 174 144.685 174H141.481ZM154.925 174C154.845 174 154.757 173.988 154.661 173.964C154.573 173.94 154.489 173.92 154.409 173.904L152.273 173.376L149.825 172.56C149.585 172.48 149.465 172.248 149.465 171.864V163.884C149.465 163.692 149.533 163.532 149.669 163.404L152.069 161.004C152.205 160.868 152.365 160.8 152.549 160.8H156.389C156.573 160.8 156.733 160.868 156.869 161.004L159.269 163.404C159.405 163.532 159.473 163.692 159.473 163.884V168.804H153.029L152.945 170.4L154.649 170.964L157.709 171.18C157.845 171.204 157.913 171.296 157.913 171.456V173.7C157.913 173.9 157.813 174 157.613 174H154.925ZM154.445 166.92H154.673C155.065 166.92 155.377 166.772 155.609 166.476C155.849 166.18 155.969 165.78 155.969 165.276V165.036C155.969 164.54 155.849 164.144 155.609 163.848C155.377 163.552 155.065 163.404 154.673 163.404H154.433C154.049 163.404 153.741 163.552 153.509 163.848C153.285 164.144 153.173 164.54 153.173 165.036V165.276C153.173 165.78 153.285 166.18 153.509 166.476C153.741 166.772 154.053 166.92 154.445 166.92ZM164.97 174C164.786 174 164.626 173.932 164.49 173.796L162.09 171.396C161.954 171.268 161.886 171.108 161.886 170.916V163.884C161.886 163.692 161.954 163.532 162.09 163.404L164.49 161.004C164.626 160.868 164.786 160.8 164.97 160.8H171.39C171.59 160.8 171.69 160.9 171.69 161.1V173.7C171.69 173.9 171.59 174 171.39 174H168.894C168.79 174 168.71 173.98 168.654 173.94C168.606 173.9 168.55 173.852 168.486 173.796L167.886 173.196L167.286 173.796C167.158 173.932 166.998 174 166.806 174H164.97ZM166.374 171.204H167.214C167.47 171.204 167.646 171.152 167.742 171.048C167.838 170.944 167.886 170.76 167.886 170.496V163.596H166.374C166.11 163.596 165.93 163.648 165.834 163.752C165.738 163.856 165.69 164.04 165.69 164.304V170.496C165.69 170.76 165.738 170.944 165.834 171.048C165.93 171.152 166.11 171.204 166.374 171.204ZM181.146 174C181.042 174 180.958 173.984 180.894 173.952C180.838 173.92 180.802 173.876 180.786 173.82L179.406 168.384H178.29V165.504H179.406L180.786 161.004C180.802 160.94 180.838 160.896 180.894 160.872C180.958 160.84 181.042 160.824 181.146 160.824H184.182C184.382 160.824 184.482 160.924 184.482 161.124V162.396C184.482 162.508 184.474 162.596 184.458 162.66C184.442 162.724 184.418 162.792 184.386 162.864L182.61 166.956V167.364L184.482 171.96C184.522 172.048 184.55 172.128 184.566 172.2C184.582 172.264 184.59 172.336 184.59 172.416V173.7C184.59 173.9 184.49 174 184.29 174H181.146ZM174.786 174C174.586 174 174.486 173.9 174.486 173.7V158.304C174.486 158.104 174.586 158.004 174.786 158.004H177.99C178.19 158.004 178.29 158.104 178.29 158.304V173.7C178.29 173.9 178.19 174 177.99 174H174.786Z" fill="white"/>
</g>
<defs>
<filter id="filter0_d_9_9" x="0" y="1.69057" width="238.806" height="195.777" filterUnits="userSpaceOnUse" color-interpolation-filters="sRGB">
<feFlood flood-opacity="0" result="BackgroundImageFix"/>
<feColorMatrix in="SourceAlpha" type="matrix" values="0 0 0 0 0 0 0 0 0 0 0 0 0 0 0 0 0 0 127 0" result="hardAlpha"/>
<feOffset dy="4"/>
<feGaussianBlur stdDeviation="2"/>
<feComposite in2="hardAlpha" operator="out"/>
<feColorMatrix type="matrix" values="0 0 0 0 0 0 0 0 0 0 0 0 0 0 0 0 0 0 0.25 0"/>
<feBlend mode="normal" in2="BackgroundImageFix" result="effect1_dropShadow_9_9"/>
<feBlend mode="normal" in="SourceGraphic" in2="effect1_dropShadow_9_9" result="shape"/>
</filter>
<linearlinear id="paint0_linear_9_9" x1="121.125" y1="0" x2="121.125" y2="132.627" linearUnits="userSpaceOnUse">
<stop stop-color="#FFE175"/>
<stop offset="1" stop-color="#FFD12E"/>
</linearlinear>
<linearlinear id="paint1_linear_9_9" x1="121.623" y1="37.7038" x2="121.623" y2="89.7666" linearUnits="userSpaceOnUse">
<stop stop-color="white"/>
<stop offset="1" stop-color="#FFE86D"/>
</linearlinear>
</defs>
</svg>
