<svg width="600" height="455" viewBox="0 0 600 455" fill="none" xmlns="http://www.w3.org/2000/svg">
<rect width="600" height="455" rx="60" fill="white"/>
<rect x="60.5" y="319.5" width="191" height="53" rx="26.5" stroke="#00373E"/>
<path d="M100.71 353V339.8H103.23V353H100.71ZM101.29 353V350.84H109.01V353H101.29ZM115.829 353.26C114.989 353.26 114.236 353.14 113.569 352.9C112.916 352.66 112.363 352.313 111.909 351.86C111.456 351.393 111.109 350.833 110.869 350.18C110.629 349.527 110.509 348.787 110.509 347.96C110.509 347.133 110.623 346.373 110.849 345.68C111.089 344.987 111.429 344.387 111.869 343.88C112.309 343.373 112.843 342.98 113.469 342.7C114.109 342.42 114.836 342.28 115.649 342.28C116.409 342.28 117.089 342.407 117.689 342.66C118.289 342.913 118.796 343.293 119.209 343.8C119.623 344.293 119.929 344.913 120.129 345.66C120.329 346.393 120.396 347.247 120.329 348.22L112.149 348.28V346.82L118.869 346.76L117.989 347.58C118.069 346.82 118.009 346.2 117.809 345.72C117.609 345.227 117.323 344.867 116.949 344.64C116.576 344.4 116.149 344.28 115.669 344.28C115.123 344.28 114.643 344.427 114.229 344.72C113.816 345 113.496 345.413 113.269 345.96C113.056 346.493 112.949 347.147 112.949 347.92C112.949 349.08 113.203 349.947 113.709 350.52C114.229 351.093 114.936 351.38 115.829 351.38C116.229 351.38 116.563 351.333 116.829 351.24C117.109 351.133 117.343 351 117.529 350.84C117.716 350.667 117.863 350.473 117.969 350.26C118.089 350.047 118.183 349.82 118.249 349.58L120.449 350.08C120.343 350.573 120.169 351.013 119.929 351.4C119.689 351.787 119.376 352.12 118.989 352.4C118.616 352.68 118.169 352.893 117.649 353.04C117.129 353.187 116.523 353.26 115.829 353.26ZM125.592 353.26C125.019 353.26 124.505 353.153 124.052 352.94C123.599 352.713 123.239 352.38 122.972 351.94C122.719 351.5 122.592 350.953 122.592 350.3C122.592 349.753 122.692 349.287 122.892 348.9C123.105 348.513 123.419 348.2 123.832 347.96C124.245 347.707 124.759 347.5 125.372 347.34C125.985 347.167 126.705 347.02 127.532 346.9C127.985 346.833 128.352 346.767 128.632 346.7C128.925 346.633 129.139 346.533 129.272 346.4C129.405 346.253 129.472 346.04 129.472 345.76C129.472 345.347 129.325 344.993 129.032 344.7C128.752 344.393 128.292 344.24 127.652 344.24C127.265 344.24 126.892 344.307 126.532 344.44C126.185 344.573 125.885 344.787 125.632 345.08C125.379 345.36 125.205 345.733 125.112 346.2L122.852 345.5C122.999 344.967 123.212 344.507 123.492 344.12C123.772 343.72 124.119 343.38 124.532 343.1C124.945 342.82 125.419 342.613 125.952 342.48C126.485 342.347 127.072 342.28 127.712 342.28C128.685 342.28 129.485 342.44 130.112 342.76C130.739 343.067 131.205 343.553 131.512 344.22C131.819 344.873 131.972 345.72 131.972 346.76V348.72C131.972 349.173 131.979 349.647 131.992 350.14C132.019 350.62 132.045 351.107 132.072 351.6C132.112 352.08 132.159 352.547 132.212 353H129.952C129.899 352.627 129.852 352.227 129.812 351.8C129.772 351.373 129.739 350.94 129.712 350.5H129.392C129.205 351.007 128.939 351.473 128.592 351.9C128.245 352.313 127.819 352.647 127.312 352.9C126.819 353.14 126.245 353.26 125.592 353.26ZM126.592 351.4C126.859 351.4 127.125 351.353 127.392 351.26C127.672 351.167 127.945 351.027 128.212 350.84C128.479 350.653 128.725 350.427 128.952 350.16C129.179 349.88 129.372 349.553 129.532 349.18L129.492 347.4L129.972 347.48C129.745 347.667 129.465 347.813 129.132 347.92C128.799 348.027 128.445 348.107 128.072 348.16C127.712 348.213 127.345 348.28 126.972 348.36C126.612 348.427 126.285 348.52 125.992 348.64C125.699 348.747 125.465 348.907 125.292 349.12C125.119 349.32 125.032 349.6 125.032 349.96C125.032 350.413 125.179 350.767 125.472 351.02C125.765 351.273 126.139 351.4 126.592 351.4ZM135.195 353V347.76V342.54H137.315L137.275 346.14H137.635C137.755 345.287 137.942 344.58 138.195 344.02C138.449 343.447 138.802 343.02 139.255 342.74C139.709 342.447 140.269 342.3 140.935 342.3C141.069 342.3 141.209 342.307 141.355 342.32C141.515 342.333 141.689 342.367 141.875 342.42L141.775 345.08C141.562 345 141.342 344.947 141.115 344.92C140.902 344.88 140.702 344.86 140.515 344.86C139.995 344.86 139.542 344.993 139.155 345.26C138.782 345.527 138.475 345.907 138.235 346.4C138.009 346.88 137.835 347.453 137.715 348.12V353H135.195ZM144.133 353V346.62V342.54H146.233L146.173 345.74H146.533C146.72 344.953 146.966 344.307 147.273 343.8C147.593 343.293 148 342.913 148.493 342.66C148.986 342.407 149.56 342.28 150.213 342.28C151.4 342.28 152.3 342.7 152.913 343.54C153.54 344.38 153.853 345.68 153.853 347.44V353H151.313V347.7C151.313 346.567 151.14 345.74 150.793 345.22C150.46 344.687 149.96 344.42 149.293 344.42C148.733 344.42 148.26 344.6 147.873 344.96C147.486 345.307 147.186 345.773 146.973 346.36C146.773 346.933 146.666 347.567 146.653 348.26V353H144.133ZM162.421 353V339.8H166.241L170.161 350.18H170.261L174.121 339.8H177.781V353H175.381L175.541 342.36H175.341L171.161 353H168.961L164.841 342.36H164.641L164.801 353H162.421ZM185.898 353.26C184.871 353.26 183.965 353.053 183.178 352.64C182.391 352.213 181.771 351.593 181.318 350.78C180.878 349.953 180.658 348.94 180.658 347.74C180.658 346.513 180.885 345.5 181.338 344.7C181.805 343.887 182.431 343.28 183.218 342.88C184.005 342.48 184.891 342.28 185.878 342.28C186.905 342.28 187.811 342.487 188.598 342.9C189.385 343.313 190.005 343.933 190.458 344.76C190.911 345.573 191.138 346.587 191.138 347.8C191.138 349.027 190.911 350.047 190.458 350.86C190.005 351.673 189.378 352.28 188.578 352.68C187.791 353.067 186.898 353.26 185.898 353.26ZM185.998 351.34C186.558 351.34 187.031 351.213 187.418 350.96C187.805 350.693 188.098 350.3 188.298 349.78C188.511 349.26 188.618 348.64 188.618 347.92C188.618 347.16 188.505 346.513 188.278 345.98C188.065 345.433 187.751 345.013 187.338 344.72C186.938 344.427 186.431 344.28 185.818 344.28C185.285 344.28 184.818 344.413 184.418 344.68C184.018 344.933 183.711 345.313 183.498 345.82C183.298 346.327 183.198 346.953 183.198 347.7C183.198 348.873 183.445 349.773 183.938 350.4C184.445 351.027 185.131 351.34 185.998 351.34ZM193.906 353V347.76V342.54H196.026L195.986 346.14H196.346C196.466 345.287 196.653 344.58 196.906 344.02C197.16 343.447 197.513 343.02 197.966 342.74C198.42 342.447 198.98 342.3 199.646 342.3C199.78 342.3 199.92 342.307 200.066 342.32C200.226 342.333 200.4 342.367 200.586 342.42L200.486 345.08C200.273 345 200.053 344.947 199.826 344.92C199.613 344.88 199.413 344.86 199.226 344.86C198.706 344.86 198.253 344.993 197.866 345.26C197.493 345.527 197.186 345.907 196.946 346.4C196.72 346.88 196.546 347.453 196.426 348.12V353H193.906ZM207.466 353.26C206.626 353.26 205.873 353.14 205.206 352.9C204.553 352.66 204 352.313 203.546 351.86C203.093 351.393 202.746 350.833 202.506 350.18C202.266 349.527 202.146 348.787 202.146 347.96C202.146 347.133 202.26 346.373 202.486 345.68C202.726 344.987 203.066 344.387 203.506 343.88C203.946 343.373 204.48 342.98 205.106 342.7C205.746 342.42 206.473 342.28 207.286 342.28C208.046 342.28 208.726 342.407 209.326 342.66C209.926 342.913 210.433 343.293 210.846 343.8C211.26 344.293 211.566 344.913 211.766 345.66C211.966 346.393 212.033 347.247 211.966 348.22L203.786 348.28V346.82L210.506 346.76L209.626 347.58C209.706 346.82 209.646 346.2 209.446 345.72C209.246 345.227 208.96 344.867 208.586 344.64C208.213 344.4 207.786 344.28 207.306 344.28C206.76 344.28 206.28 344.427 205.866 344.72C205.453 345 205.133 345.413 204.906 345.96C204.693 346.493 204.586 347.147 204.586 347.92C204.586 349.08 204.84 349.947 205.346 350.52C205.866 351.093 206.573 351.38 207.466 351.38C207.866 351.38 208.2 351.333 208.466 351.24C208.746 351.133 208.98 351 209.166 350.84C209.353 350.667 209.5 350.473 209.606 350.26C209.726 350.047 209.82 349.82 209.886 349.58L212.086 350.08C211.98 350.573 211.806 351.013 211.566 351.4C211.326 351.787 211.013 352.12 210.626 352.4C210.253 352.68 209.806 352.893 209.286 353.04C208.766 353.187 208.16 353.26 207.466 353.26Z" fill="#00373E"/>
<path d="M74.32 112.52C72.4 112.52 70.6933 112.213 69.2 111.6C67.7067 110.987 66.4267 110.107 65.36 108.96C64.32 107.787 63.52 106.36 62.96 104.68C62.4 103 62.12 101.08 62.12 98.92C62.12 95.8 62.6533 93.2267 63.72 91.2C64.7867 89.1467 66.2533 87.6133 68.12 86.6C69.9867 85.5867 72.1067 85.08 74.48 85.08C76.32 85.08 77.9867 85.3867 79.48 86C80.9733 86.5867 82.24 87.4667 83.28 88.64C84.3467 89.7867 85.1733 91.2267 85.76 92.96C86.3467 94.6667 86.64 96.6267 86.64 98.84C86.64 101.053 86.3467 103.013 85.76 104.72C85.2 106.4 84.3867 107.827 83.32 109C82.2533 110.147 80.96 111.027 79.44 111.64C77.9467 112.227 76.24 112.52 74.32 112.52ZM74.44 108.44C75.96 108.44 77.2267 108.08 78.24 107.36C79.28 106.613 80.0667 105.547 80.6 104.16C81.16 102.773 81.44 101.08 81.44 99.08C81.44 97.0267 81.16 95.2667 80.6 93.8C80.04 92.3333 79.2267 91.2267 78.16 90.48C77.12 89.7067 75.84 89.32 74.32 89.32C72.88 89.32 71.6267 89.6933 70.56 90.44C69.52 91.16 68.72 92.24 68.16 93.68C67.6 95.0933 67.32 96.8267 67.32 98.88C67.32 100.427 67.48 101.8 67.8 103C68.12 104.173 68.5733 105.16 69.16 105.96C69.7733 106.76 70.52 107.373 71.4 107.8C72.3067 108.227 73.32 108.44 74.44 108.44ZM92.09 112V99.24V91.08H96.29L96.17 97.48H96.89C97.2633 95.9067 97.7567 94.6133 98.37 93.6C99.01 92.5867 99.8233 91.8267 100.81 91.32C101.797 90.8133 102.943 90.56 104.25 90.56C106.623 90.56 108.423 91.4 109.65 93.08C110.903 94.76 111.53 97.36 111.53 100.88V112H106.45V101.4C106.45 99.1333 106.103 97.48 105.41 96.44C104.743 95.3733 103.743 94.84 102.41 94.84C101.29 94.84 100.343 95.2 99.57 95.92C98.7967 96.6133 98.1967 97.5467 97.77 98.72C97.37 99.8667 97.1567 101.133 97.13 102.52V112H92.09ZM126.796 112.52C125.116 112.52 123.609 112.28 122.276 111.8C120.969 111.32 119.862 110.627 118.956 109.72C118.049 108.787 117.356 107.667 116.876 106.36C116.396 105.053 116.156 103.573 116.156 101.92C116.156 100.267 116.382 98.7467 116.836 97.36C117.316 95.9733 117.996 94.7733 118.876 93.76C119.756 92.7467 120.822 91.96 122.076 91.4C123.356 90.84 124.809 90.56 126.436 90.56C127.956 90.56 129.316 90.8133 130.516 91.32C131.716 91.8267 132.729 92.5867 133.556 93.6C134.382 94.5867 134.996 95.8267 135.396 97.32C135.796 98.7867 135.929 100.493 135.796 102.44L119.436 102.56V99.64L132.876 99.52L131.116 101.16C131.276 99.64 131.156 98.4 130.756 97.44C130.356 96.4533 129.782 95.7333 129.036 95.28C128.289 94.8 127.436 94.56 126.476 94.56C125.382 94.56 124.422 94.8533 123.596 95.44C122.769 96 122.129 96.8267 121.676 97.92C121.249 98.9867 121.036 100.293 121.036 101.84C121.036 104.16 121.542 105.893 122.556 107.04C123.596 108.187 125.009 108.76 126.796 108.76C127.596 108.76 128.262 108.667 128.796 108.48C129.356 108.267 129.822 108 130.196 107.68C130.569 107.333 130.862 106.947 131.076 106.52C131.316 106.093 131.502 105.64 131.636 105.16L136.036 106.16C135.822 107.147 135.476 108.027 134.996 108.8C134.516 109.573 133.889 110.24 133.116 110.8C132.369 111.36 131.476 111.787 130.436 112.08C129.396 112.373 128.182 112.52 126.796 112.52ZM139.459 103.64V99.08H150.779V103.64H139.459ZM165.37 112.52C163.317 112.52 161.503 112.107 159.93 111.28C158.357 110.427 157.117 109.187 156.21 107.56C155.33 105.907 154.89 103.88 154.89 101.48C154.89 99.0267 155.343 97 156.25 95.4C157.183 93.7733 158.437 92.56 160.01 91.76C161.583 90.96 163.357 90.56 165.33 90.56C167.383 90.56 169.197 90.9733 170.77 91.8C172.343 92.6267 173.583 93.8667 174.49 95.52C175.397 97.1467 175.85 99.1733 175.85 101.6C175.85 104.053 175.397 106.093 174.49 107.72C173.583 109.347 172.33 110.56 170.73 111.36C169.157 112.133 167.37 112.52 165.37 112.52ZM165.57 108.68C166.69 108.68 167.637 108.427 168.41 107.92C169.183 107.387 169.77 106.6 170.17 105.56C170.597 104.52 170.81 103.28 170.81 101.84C170.81 100.32 170.583 99.0267 170.13 97.96C169.703 96.8667 169.077 96.0267 168.25 95.44C167.45 94.8533 166.437 94.56 165.21 94.56C164.143 94.56 163.21 94.8267 162.41 95.36C161.61 95.8667 160.997 96.6267 160.57 97.64C160.17 98.6533 159.97 99.9067 159.97 101.4C159.97 103.747 160.463 105.547 161.45 106.8C162.463 108.053 163.837 108.68 165.57 108.68ZM180.887 112V99.24V91.08H185.087L184.967 97.48H185.687C186.06 95.9067 186.554 94.6133 187.167 93.6C187.807 92.5867 188.62 91.8267 189.607 91.32C190.594 90.8133 191.74 90.56 193.047 90.56C195.42 90.56 197.22 91.4 198.447 93.08C199.7 94.76 200.327 97.36 200.327 100.88V112H195.247V101.4C195.247 99.1333 194.9 97.48 194.207 96.44C193.54 95.3733 192.54 94.84 191.207 94.84C190.087 94.84 189.14 95.2 188.367 95.92C187.594 96.6133 186.994 97.5467 186.567 98.72C186.167 99.8667 185.954 101.133 185.927 102.52V112H180.887ZM204.748 103.64V99.08H216.068V103.64H204.748ZM232.547 112.52C230.627 112.52 228.92 112.213 227.427 111.6C225.933 110.987 224.653 110.107 223.587 108.96C222.547 107.787 221.747 106.36 221.187 104.68C220.627 103 220.347 101.08 220.347 98.92C220.347 95.8 220.88 93.2267 221.947 91.2C223.013 89.1467 224.48 87.6133 226.347 86.6C228.213 85.5867 230.333 85.08 232.707 85.08C234.547 85.08 236.213 85.3867 237.707 86C239.2 86.5867 240.467 87.4667 241.507 88.64C242.573 89.7867 243.4 91.2267 243.987 92.96C244.573 94.6667 244.867 96.6267 244.867 98.84C244.867 101.053 244.573 103.013 243.987 104.72C243.427 106.4 242.613 107.827 241.547 109C240.48 110.147 239.187 111.027 237.667 111.64C236.173 112.227 234.467 112.52 232.547 112.52ZM232.667 108.44C234.187 108.44 235.453 108.08 236.467 107.36C237.507 106.613 238.293 105.547 238.827 104.16C239.387 102.773 239.667 101.08 239.667 99.08C239.667 97.0267 239.387 95.2667 238.827 93.8C238.267 92.3333 237.453 91.2267 236.387 90.48C235.347 89.7067 234.067 89.32 232.547 89.32C231.107 89.32 229.853 89.6933 228.787 90.44C227.747 91.16 226.947 92.24 226.387 93.68C225.827 95.0933 225.547 96.8267 225.547 98.88C225.547 100.427 225.707 101.8 226.027 103C226.347 104.173 226.8 105.16 227.387 105.96C228 106.76 228.747 107.373 229.627 107.8C230.533 108.227 231.547 108.44 232.667 108.44ZM250.317 112V99.24V91.08H254.517L254.397 97.48H255.117C255.49 95.9067 255.983 94.6133 256.597 93.6C257.237 92.5867 258.05 91.8267 259.037 91.32C260.023 90.8133 261.17 90.56 262.477 90.56C264.85 90.56 266.65 91.4 267.877 93.08C269.13 94.76 269.757 97.36 269.757 100.88V112H264.677V101.4C264.677 99.1333 264.33 97.48 263.637 96.44C262.97 95.3733 261.97 94.84 260.637 94.84C259.517 94.84 258.57 95.2 257.797 95.92C257.023 96.6133 256.423 97.5467 255.997 98.72C255.597 99.8667 255.383 101.133 255.357 102.52V112H250.317ZM285.022 112.52C283.342 112.52 281.836 112.28 280.502 111.8C279.196 111.32 278.089 110.627 277.182 109.72C276.276 108.787 275.582 107.667 275.102 106.36C274.622 105.053 274.382 103.573 274.382 101.92C274.382 100.267 274.609 98.7467 275.062 97.36C275.542 95.9733 276.222 94.7733 277.102 93.76C277.982 92.7467 279.049 91.96 280.302 91.4C281.582 90.84 283.036 90.56 284.662 90.56C286.182 90.56 287.542 90.8133 288.742 91.32C289.942 91.8267 290.956 92.5867 291.782 93.6C292.609 94.5867 293.222 95.8267 293.622 97.32C294.022 98.7867 294.156 100.493 294.022 102.44L277.662 102.56V99.64L291.102 99.52L289.342 101.16C289.502 99.64 289.382 98.4 288.982 97.44C288.582 96.4533 288.009 95.7333 287.262 95.28C286.516 94.8 285.662 94.56 284.702 94.56C283.609 94.56 282.649 94.8533 281.822 95.44C280.996 96 280.356 96.8267 279.902 97.92C279.476 98.9867 279.262 100.293 279.262 101.84C279.262 104.16 279.769 105.893 280.782 107.04C281.822 108.187 283.236 108.76 285.022 108.76C285.822 108.76 286.489 108.667 287.022 108.48C287.582 108.267 288.049 108 288.422 107.68C288.796 107.333 289.089 106.947 289.302 106.52C289.542 106.093 289.729 105.64 289.862 105.16L294.262 106.16C294.049 107.147 293.702 108.027 293.222 108.8C292.742 109.573 292.116 110.24 291.342 110.8C290.596 111.36 289.702 111.787 288.662 112.08C287.622 112.373 286.409 112.52 285.022 112.52ZM68.68 160V133.6H73.76V160H68.68ZM60.84 137.88V133.6H81.64V137.88H60.84ZM85.7619 160V147V131.6H90.8419V138.12C90.8419 138.68 90.8152 139.253 90.7619 139.84C90.7352 140.427 90.6819 141.027 90.6019 141.64C90.5219 142.253 90.4285 142.867 90.3219 143.48C90.2419 144.093 90.1485 144.707 90.0419 145.32H90.8819C91.2552 143.88 91.7352 142.667 92.3219 141.68C92.9085 140.667 93.6552 139.893 94.5619 139.36C95.4952 138.827 96.6285 138.56 97.9619 138.56C100.389 138.56 102.202 139.413 103.402 141.12C104.602 142.8 105.202 145.36 105.202 148.8V160H100.122V149.52C100.122 147.227 99.7752 145.533 99.0819 144.44C98.4152 143.347 97.4019 142.8 96.0419 142.8C94.9219 142.8 93.9885 143.147 93.2419 143.84C92.4952 144.507 91.9219 145.4 91.5219 146.52C91.1219 147.64 90.8819 148.907 90.8019 150.32V160H85.7619ZM120.468 160.52C118.788 160.52 117.281 160.28 115.948 159.8C114.641 159.32 113.534 158.627 112.628 157.72C111.721 156.787 111.028 155.667 110.548 154.36C110.068 153.053 109.828 151.573 109.828 149.92C109.828 148.267 110.054 146.747 110.508 145.36C110.988 143.973 111.668 142.773 112.548 141.76C113.428 140.747 114.494 139.96 115.748 139.4C117.028 138.84 118.481 138.56 120.108 138.56C121.628 138.56 122.988 138.813 124.188 139.32C125.388 139.827 126.401 140.587 127.228 141.6C128.054 142.587 128.668 143.827 129.068 145.32C129.468 146.787 129.601 148.493 129.468 150.44L113.108 150.56V147.64L126.548 147.52L124.788 149.16C124.948 147.64 124.828 146.4 124.428 145.44C124.028 144.453 123.454 143.733 122.708 143.28C121.961 142.8 121.108 142.56 120.148 142.56C119.054 142.56 118.094 142.853 117.268 143.44C116.441 144 115.801 144.827 115.348 145.92C114.921 146.987 114.708 148.293 114.708 149.84C114.708 152.16 115.214 153.893 116.228 155.04C117.268 156.187 118.681 156.76 120.468 156.76C121.268 156.76 121.934 156.667 122.468 156.48C123.028 156.267 123.494 156 123.868 155.68C124.241 155.333 124.534 154.947 124.748 154.52C124.988 154.093 125.174 153.64 125.308 153.16L129.708 154.16C129.494 155.147 129.148 156.027 128.668 156.8C128.188 157.573 127.561 158.24 126.788 158.8C126.041 159.36 125.148 159.787 124.108 160.08C123.068 160.373 121.854 160.52 120.468 160.52ZM134.574 160V149.52V139.08H138.814L138.734 146.28H139.454C139.694 144.573 140.068 143.16 140.574 142.04C141.081 140.893 141.788 140.04 142.694 139.48C143.601 138.893 144.721 138.6 146.054 138.6C146.321 138.6 146.601 138.613 146.894 138.64C147.214 138.667 147.561 138.733 147.934 138.84L147.734 144.16C147.308 144 146.868 143.893 146.414 143.84C145.988 143.76 145.588 143.72 145.214 143.72C144.174 143.72 143.268 143.987 142.494 144.52C141.748 145.053 141.134 145.813 140.654 146.8C140.201 147.76 139.854 148.907 139.614 150.24V160H134.574ZM156.477 160.52C155.33 160.52 154.304 160.307 153.397 159.88C152.49 159.427 151.77 158.76 151.237 157.88C150.73 157 150.477 155.907 150.477 154.6C150.477 153.507 150.677 152.573 151.077 151.8C151.504 151.027 152.13 150.4 152.957 149.92C153.784 149.413 154.81 149 156.037 148.68C157.264 148.333 158.704 148.04 160.357 147.8C161.264 147.667 161.997 147.533 162.557 147.4C163.144 147.267 163.57 147.067 163.837 146.8C164.104 146.507 164.237 146.08 164.237 145.52C164.237 144.693 163.944 143.987 163.357 143.4C162.797 142.787 161.877 142.48 160.597 142.48C159.824 142.48 159.077 142.613 158.357 142.88C157.664 143.147 157.064 143.573 156.557 144.16C156.05 144.72 155.704 145.467 155.517 146.4L150.997 145C151.29 143.933 151.717 143.013 152.277 142.24C152.837 141.44 153.53 140.76 154.357 140.2C155.184 139.64 156.13 139.227 157.197 138.96C158.264 138.693 159.437 138.56 160.717 138.56C162.664 138.56 164.264 138.88 165.517 139.52C166.77 140.133 167.704 141.107 168.317 142.44C168.93 143.747 169.237 145.44 169.237 147.52V151.44C169.237 152.347 169.25 153.293 169.277 154.28C169.33 155.24 169.384 156.213 169.437 157.2C169.517 158.16 169.61 159.093 169.717 160H165.197C165.09 159.253 164.997 158.453 164.917 157.6C164.837 156.747 164.77 155.88 164.717 155H164.077C163.704 156.013 163.17 156.947 162.477 157.8C161.784 158.627 160.93 159.293 159.917 159.8C158.93 160.28 157.784 160.52 156.477 160.52ZM158.477 156.8C159.01 156.8 159.544 156.707 160.077 156.52C160.637 156.333 161.184 156.053 161.717 155.68C162.25 155.307 162.744 154.853 163.197 154.32C163.65 153.76 164.037 153.107 164.357 152.36L164.277 148.8L165.237 148.96C164.784 149.333 164.224 149.627 163.557 149.84C162.89 150.053 162.184 150.213 161.437 150.32C160.717 150.427 159.984 150.56 159.237 150.72C158.517 150.853 157.864 151.04 157.277 151.28C156.69 151.493 156.224 151.813 155.877 152.24C155.53 152.64 155.357 153.2 155.357 153.92C155.357 154.827 155.65 155.533 156.237 156.04C156.824 156.547 157.57 156.8 158.477 156.8ZM175.184 166.64V149.68V139.08H179.424L179.384 144.76L180.064 144.8C180.33 143.467 180.757 142.333 181.344 141.4C181.957 140.467 182.73 139.76 183.664 139.28C184.597 138.8 185.704 138.56 186.984 138.56C188.85 138.56 190.437 139.027 191.744 139.96C193.05 140.867 194.037 142.16 194.704 143.84C195.397 145.493 195.744 147.427 195.744 149.64C195.744 151.72 195.424 153.587 194.784 155.24C194.17 156.867 193.224 158.16 191.944 159.12C190.69 160.053 189.13 160.52 187.264 160.52C185.904 160.52 184.757 160.253 183.824 159.72C182.89 159.187 182.13 158.453 181.544 157.52C180.957 156.587 180.477 155.507 180.104 154.28H179.384C179.544 155 179.677 155.747 179.784 156.52C179.917 157.267 180.024 158.013 180.104 158.76C180.184 159.48 180.224 160.173 180.224 160.84V166.64H175.184ZM185.624 156.4C186.664 156.4 187.544 156.12 188.264 155.56C188.984 154.973 189.53 154.173 189.904 153.16C190.277 152.12 190.464 150.933 190.464 149.6C190.464 148.213 190.264 147.013 189.864 146C189.49 144.987 188.93 144.2 188.184 143.64C187.437 143.08 186.557 142.8 185.544 142.8C184.664 142.8 183.89 143 183.224 143.4C182.557 143.8 181.997 144.333 181.544 145C181.09 145.64 180.757 146.333 180.544 147.08C180.33 147.827 180.224 148.56 180.224 149.28V149.96C180.224 150.493 180.29 151.053 180.424 151.64C180.584 152.2 180.81 152.773 181.104 153.36C181.397 153.92 181.757 154.44 182.184 154.92C182.61 155.373 183.117 155.733 183.704 156C184.29 156.267 184.93 156.4 185.624 156.4ZM208.405 167.16C207.338 167.16 206.258 167.053 205.165 166.84C204.071 166.627 203.045 166.293 202.085 165.84C201.151 165.413 200.365 164.853 199.725 164.16L201.445 160C202.218 160.88 203.218 161.547 204.445 162C205.671 162.453 206.911 162.68 208.165 162.68C209.631 162.68 210.845 162.373 211.805 161.76C212.765 161.173 213.498 160.253 214.005 159C214.511 157.747 214.791 156.187 214.845 154.32L215.125 150.52H214.285C214.018 152.333 213.578 153.813 212.965 154.96C212.351 156.08 211.578 156.907 210.645 157.44C209.738 157.947 208.671 158.2 207.445 158.2C205.925 158.2 204.645 157.813 203.605 157.04C202.565 156.267 201.778 155.12 201.245 153.6C200.738 152.08 200.485 150.2 200.485 147.96V139.08H205.565V146.8C205.565 149.307 205.871 151.133 206.485 152.28C207.098 153.4 208.031 153.96 209.285 153.96C209.951 153.96 210.565 153.787 211.125 153.44C211.685 153.067 212.151 152.547 212.525 151.88C212.925 151.187 213.231 150.333 213.445 149.32C213.685 148.307 213.818 147.147 213.845 145.84V139.08H218.925V154.52C218.925 156.2 218.778 157.72 218.485 159.08C218.218 160.413 217.805 161.573 217.245 162.56C216.685 163.573 215.978 164.427 215.125 165.12C214.298 165.813 213.325 166.32 212.205 166.64C211.085 166.987 209.818 167.16 208.405 167.16Z" fill="#00373E"/>
<path d="M65.16 226L60.6 212.8H62.6L66.38 224.36H66.58L70.4 212.8H72.38L67.78 226H65.16ZM75.0288 226V215.66H76.8488V226H75.0288ZM75.9288 213.9C75.5154 213.9 75.2021 213.813 74.9888 213.64C74.7754 213.467 74.6688 213.207 74.6688 212.86C74.6688 212.527 74.7754 212.273 74.9888 212.1C75.2021 211.913 75.5154 211.82 75.9288 211.82C76.3554 211.82 76.6754 211.907 76.8888 212.08C77.1021 212.253 77.2088 212.513 77.2088 212.86C77.2088 213.193 77.0954 213.453 76.8688 213.64C76.6554 213.813 76.3421 213.9 75.9288 213.9ZM80.5488 226V220.4V215.66H82.1888L82.0288 219.26H82.3688C82.4888 218.473 82.6754 217.793 82.9288 217.22C83.1821 216.647 83.5154 216.2 83.9288 215.88C84.3554 215.56 84.8821 215.4 85.5088 215.4C85.6421 215.4 85.7954 215.413 85.9688 215.44C86.1421 215.453 86.3421 215.5 86.5688 215.58L86.4688 217.48C86.2688 217.4 86.0688 217.347 85.8688 217.32C85.6688 217.28 85.4754 217.26 85.2888 217.26C84.7688 217.26 84.3154 217.427 83.9288 217.76C83.5554 218.093 83.2421 218.547 82.9888 219.12C82.7354 219.68 82.5288 220.313 82.3688 221.02V226H80.5488ZM92.8234 226.2C91.8634 226.2 91.1501 225.94 90.6834 225.42C90.2168 224.9 89.9834 224.107 89.9834 223.04V217.18H88.4234L88.4434 215.66H89.4234C89.7568 215.66 89.9968 215.6 90.1434 215.48C90.3034 215.36 90.3968 215.16 90.4234 214.88L90.6234 213.32H91.7434V215.66H94.7234V217.2H91.7434V223C91.7434 223.533 91.8634 223.92 92.1034 224.16C92.3568 224.387 92.7168 224.5 93.1834 224.5C93.4368 224.5 93.6968 224.467 93.9634 224.4C94.2434 224.333 94.5168 224.2 94.7834 224V225.82C94.3968 225.967 94.0368 226.067 93.7034 226.12C93.3834 226.173 93.0901 226.2 92.8234 226.2ZM100.845 226.26C99.6986 226.26 98.832 225.86 98.2453 225.06C97.6586 224.26 97.3653 223.067 97.3653 221.48V215.66H99.2053V221.32C99.2053 222.44 99.3786 223.273 99.7253 223.82C100.072 224.367 100.619 224.64 101.365 224.64C101.779 224.64 102.145 224.54 102.465 224.34C102.799 224.14 103.092 223.853 103.345 223.48C103.599 223.107 103.805 222.667 103.965 222.16C104.125 221.64 104.232 221.08 104.285 220.48V215.66H106.105V221.68V226H104.485L104.645 222.68H104.345C104.172 223.507 103.925 224.187 103.605 224.72C103.299 225.24 102.912 225.627 102.445 225.88C101.979 226.133 101.445 226.26 100.845 226.26ZM112.144 226.26C111.584 226.26 111.077 226.153 110.624 225.94C110.17 225.713 109.81 225.387 109.544 224.96C109.277 224.52 109.144 223.967 109.144 223.3C109.144 222.807 109.23 222.373 109.404 222C109.59 221.627 109.87 221.307 110.244 221.04C110.63 220.773 111.124 220.553 111.724 220.38C112.324 220.207 113.057 220.06 113.924 219.94C114.417 219.873 114.817 219.807 115.124 219.74C115.444 219.673 115.677 219.567 115.824 219.42C115.97 219.26 116.044 219.027 116.044 218.72C116.044 218.213 115.87 217.787 115.524 217.44C115.177 217.093 114.63 216.92 113.884 216.92C113.497 216.92 113.104 216.987 112.704 217.12C112.304 217.253 111.95 217.48 111.644 217.8C111.35 218.107 111.164 218.54 111.084 219.1L109.404 218.54C109.51 218.06 109.684 217.627 109.924 217.24C110.177 216.853 110.497 216.527 110.884 216.26C111.27 215.98 111.717 215.767 112.224 215.62C112.744 215.473 113.317 215.4 113.944 215.4C114.81 215.4 115.53 215.547 116.104 215.84C116.69 216.133 117.124 216.587 117.404 217.2C117.697 217.8 117.844 218.573 117.844 219.52V221.82C117.844 222.233 117.85 222.687 117.864 223.18C117.89 223.66 117.924 224.147 117.964 224.64C118.004 225.12 118.044 225.573 118.084 226H116.404C116.364 225.573 116.324 225.147 116.284 224.72C116.257 224.293 116.237 223.867 116.224 223.44H115.964C115.764 223.933 115.497 224.393 115.164 224.82C114.83 225.247 114.41 225.593 113.904 225.86C113.41 226.127 112.824 226.26 112.144 226.26ZM112.684 224.78C112.977 224.78 113.27 224.733 113.564 224.64C113.87 224.547 114.17 224.393 114.464 224.18C114.77 223.967 115.057 223.693 115.324 223.36C115.604 223.027 115.85 222.627 116.064 222.16V220.16L116.584 220.26C116.37 220.473 116.084 220.633 115.724 220.74C115.377 220.847 114.99 220.933 114.564 221C114.137 221.067 113.71 221.14 113.284 221.22C112.857 221.287 112.464 221.393 112.104 221.54C111.757 221.673 111.477 221.867 111.264 222.12C111.05 222.373 110.944 222.72 110.944 223.16C110.944 223.693 111.104 224.1 111.424 224.38C111.744 224.647 112.164 224.78 112.684 224.78ZM121.396 226V212H123.216V226H121.396ZM134.796 226.26C134.236 226.26 133.729 226.153 133.276 225.94C132.823 225.713 132.463 225.387 132.196 224.96C131.929 224.52 131.796 223.967 131.796 223.3C131.796 222.807 131.883 222.373 132.056 222C132.243 221.627 132.523 221.307 132.896 221.04C133.283 220.773 133.776 220.553 134.376 220.38C134.976 220.207 135.709 220.06 136.576 219.94C137.069 219.873 137.469 219.807 137.776 219.74C138.096 219.673 138.329 219.567 138.476 219.42C138.623 219.26 138.696 219.027 138.696 218.72C138.696 218.213 138.523 217.787 138.176 217.44C137.829 217.093 137.283 216.92 136.536 216.92C136.149 216.92 135.756 216.987 135.356 217.12C134.956 217.253 134.603 217.48 134.296 217.8C134.003 218.107 133.816 218.54 133.736 219.1L132.056 218.54C132.163 218.06 132.336 217.627 132.576 217.24C132.829 216.853 133.149 216.527 133.536 216.26C133.923 215.98 134.369 215.767 134.876 215.62C135.396 215.473 135.969 215.4 136.596 215.4C137.463 215.4 138.183 215.547 138.756 215.84C139.343 216.133 139.776 216.587 140.056 217.2C140.349 217.8 140.496 218.573 140.496 219.52V221.82C140.496 222.233 140.503 222.687 140.516 223.18C140.543 223.66 140.576 224.147 140.616 224.64C140.656 225.12 140.696 225.573 140.736 226H139.056C139.016 225.573 138.976 225.147 138.936 224.72C138.909 224.293 138.889 223.867 138.876 223.44H138.616C138.416 223.933 138.149 224.393 137.816 224.82C137.483 225.247 137.063 225.593 136.556 225.86C136.063 226.127 135.476 226.26 134.796 226.26ZM135.336 224.78C135.629 224.78 135.923 224.733 136.216 224.64C136.523 224.547 136.823 224.393 137.116 224.18C137.423 223.967 137.709 223.693 137.976 223.36C138.256 223.027 138.503 222.627 138.716 222.16V220.16L139.236 220.26C139.023 220.473 138.736 220.633 138.376 220.74C138.029 220.847 137.643 220.933 137.216 221C136.789 221.067 136.363 221.14 135.936 221.22C135.509 221.287 135.116 221.393 134.756 221.54C134.409 221.673 134.129 221.867 133.916 222.12C133.703 222.373 133.596 222.72 133.596 223.16C133.596 223.693 133.756 224.1 134.076 224.38C134.396 224.647 134.816 224.78 135.336 224.78ZM144.009 226V219.7L143.989 215.66H145.649L145.469 219.06H145.769C145.955 218.22 146.202 217.533 146.509 217C146.829 216.453 147.229 216.053 147.709 215.8C148.202 215.533 148.775 215.4 149.429 215.4C150.575 215.4 151.442 215.813 152.029 216.64C152.615 217.453 152.909 218.68 152.909 220.32V226H151.069V220.46C151.069 219.287 150.889 218.42 150.529 217.86C150.169 217.3 149.629 217.02 148.909 217.02C148.282 217.02 147.742 217.227 147.289 217.64C146.835 218.04 146.482 218.573 146.229 219.24C145.989 219.907 145.855 220.64 145.829 221.44V226H144.009ZM160.142 226.26C159.262 226.26 158.509 226.027 157.882 225.56C157.255 225.093 156.775 224.453 156.442 223.64C156.122 222.827 155.962 221.893 155.962 220.84C155.962 219.787 156.122 218.853 156.442 218.04C156.762 217.227 157.229 216.587 157.842 216.12C158.455 215.653 159.209 215.42 160.102 215.42C160.835 215.42 161.435 215.573 161.902 215.88C162.369 216.187 162.742 216.587 163.022 217.08C163.315 217.56 163.529 218.087 163.662 218.66H164.022C163.955 218.273 163.895 217.873 163.842 217.46C163.789 217.033 163.742 216.62 163.702 216.22C163.662 215.807 163.642 215.44 163.642 215.12V212H165.482V220.9V226H163.842L163.942 223.2H163.622C163.462 223.8 163.235 224.333 162.942 224.8C162.649 225.253 162.275 225.613 161.822 225.88C161.369 226.133 160.809 226.26 160.142 226.26ZM160.562 224.66C161.042 224.66 161.475 224.547 161.862 224.32C162.249 224.093 162.575 223.8 162.842 223.44C163.109 223.067 163.309 222.667 163.442 222.24C163.589 221.813 163.662 221.4 163.662 221V220.76C163.662 220.48 163.622 220.18 163.542 219.86C163.462 219.527 163.342 219.193 163.182 218.86C163.035 218.527 162.835 218.22 162.582 217.94C162.342 217.647 162.055 217.42 161.722 217.26C161.389 217.087 161.015 217 160.602 217C160.002 217 159.495 217.173 159.082 217.52C158.682 217.853 158.375 218.313 158.162 218.9C157.962 219.487 157.862 220.147 157.862 220.88C157.862 221.64 157.969 222.307 158.182 222.88C158.395 223.44 158.702 223.88 159.102 224.2C159.515 224.507 160.002 224.66 160.562 224.66ZM174.689 226V215.66H176.509V226H174.689ZM175.589 213.9C175.176 213.9 174.862 213.813 174.649 213.64C174.436 213.467 174.329 213.207 174.329 212.86C174.329 212.527 174.436 212.273 174.649 212.1C174.862 211.913 175.176 211.82 175.589 211.82C176.016 211.82 176.336 211.907 176.549 212.08C176.762 212.253 176.869 212.513 176.869 212.86C176.869 213.193 176.756 213.453 176.529 213.64C176.316 213.813 176.002 213.9 175.589 213.9ZM180.169 226V219.7L180.149 215.66H181.809L181.629 219.06H181.929C182.116 218.22 182.362 217.533 182.669 217C182.989 216.453 183.389 216.053 183.869 215.8C184.362 215.533 184.936 215.4 185.589 215.4C186.736 215.4 187.602 215.813 188.189 216.64C188.776 217.453 189.069 218.68 189.069 220.32V226H187.229V220.46C187.229 219.287 187.049 218.42 186.689 217.86C186.329 217.3 185.789 217.02 185.069 217.02C184.442 217.02 183.902 217.227 183.449 217.64C182.996 218.04 182.642 218.573 182.389 219.24C182.149 219.907 182.016 220.64 181.989 221.44V226H180.169ZM191.82 221.52V219.84H197.14V221.52H191.82ZM199.881 229.24V220.84V215.66H201.521L201.421 218.32H201.721C201.881 217.733 202.101 217.227 202.381 216.8C202.674 216.36 203.047 216.02 203.501 215.78C203.954 215.527 204.501 215.4 205.141 215.4C206.087 215.4 206.874 215.64 207.501 216.12C208.141 216.587 208.621 217.233 208.941 218.06C209.261 218.873 209.421 219.8 209.421 220.84C209.421 221.88 209.261 222.807 208.941 223.62C208.621 224.433 208.147 225.08 207.521 225.56C206.907 226.027 206.154 226.26 205.261 226.26C204.541 226.26 203.941 226.113 203.461 225.82C202.994 225.513 202.621 225.113 202.341 224.62C202.061 224.127 201.841 223.613 201.681 223.08H201.341C201.421 223.44 201.487 223.813 201.541 224.2C201.594 224.587 201.634 224.973 201.661 225.36C201.701 225.733 201.721 226.093 201.721 226.44V229.24H199.881ZM204.801 224.68C205.387 224.68 205.881 224.513 206.281 224.18C206.681 223.833 206.987 223.367 207.201 222.78C207.414 222.193 207.521 221.533 207.521 220.8C207.521 220.013 207.407 219.34 207.181 218.78C206.967 218.22 206.661 217.787 206.261 217.48C205.861 217.16 205.374 217 204.801 217C204.307 217 203.867 217.113 203.481 217.34C203.107 217.553 202.787 217.847 202.521 218.22C202.254 218.58 202.047 218.98 201.901 219.42C201.767 219.847 201.701 220.273 201.701 220.7V220.94C201.701 221.207 201.741 221.507 201.821 221.84C201.901 222.16 202.021 222.487 202.181 222.82C202.341 223.153 202.541 223.46 202.781 223.74C203.034 224.02 203.327 224.247 203.661 224.42C203.994 224.593 204.374 224.68 204.801 224.68ZM217.008 226.26C216.195 226.26 215.475 226.14 214.848 225.9C214.235 225.647 213.715 225.287 213.288 224.82C212.862 224.353 212.542 223.8 212.328 223.16C212.115 222.52 212.008 221.8 212.008 221C212.008 220.187 212.115 219.44 212.328 218.76C212.542 218.08 212.855 217.487 213.268 216.98C213.682 216.473 214.188 216.087 214.788 215.82C215.388 215.54 216.075 215.4 216.848 215.4C217.528 215.4 218.148 215.513 218.708 215.74C219.268 215.967 219.742 216.32 220.128 216.8C220.528 217.267 220.828 217.86 221.028 218.58C221.228 219.287 221.308 220.12 221.268 221.08L213.148 221.14V219.9L220.168 219.84L219.548 220.68C219.615 219.84 219.535 219.147 219.308 218.6C219.082 218.053 218.755 217.64 218.328 217.36C217.915 217.08 217.422 216.94 216.848 216.94C216.235 216.94 215.695 217.1 215.228 217.42C214.762 217.74 214.402 218.2 214.148 218.8C213.908 219.4 213.788 220.127 213.788 220.98C213.788 222.207 214.062 223.147 214.608 223.8C215.155 224.44 215.968 224.76 217.048 224.76C217.462 224.76 217.822 224.713 218.128 224.62C218.448 224.513 218.715 224.373 218.928 224.2C219.155 224.013 219.335 223.8 219.468 223.56C219.615 223.32 219.728 223.06 219.808 222.78L221.408 223.16C221.288 223.64 221.102 224.073 220.848 224.46C220.608 224.833 220.302 225.153 219.928 225.42C219.568 225.687 219.148 225.893 218.668 226.04C218.188 226.187 217.635 226.26 217.008 226.26ZM224.357 226V220.4V215.66H225.997L225.837 219.26H226.177C226.297 218.473 226.484 217.793 226.737 217.22C226.991 216.647 227.324 216.2 227.737 215.88C228.164 215.56 228.691 215.4 229.317 215.4C229.451 215.4 229.604 215.413 229.777 215.44C229.951 215.453 230.151 215.5 230.377 215.58L230.277 217.48C230.077 217.4 229.877 217.347 229.677 217.32C229.477 217.28 229.284 217.26 229.097 217.26C228.577 217.26 228.124 217.427 227.737 217.76C227.364 218.093 227.051 218.547 226.797 219.12C226.544 219.68 226.337 220.313 226.177 221.02V226H224.357ZM236.607 226.26C235.9 226.26 235.267 226.18 234.707 226.02C234.147 225.873 233.673 225.66 233.287 225.38C232.913 225.087 232.627 224.74 232.427 224.34C232.227 223.927 232.127 223.473 232.127 222.98L233.687 222.58C233.66 223.047 233.767 223.447 234.007 223.78C234.247 224.1 234.593 224.347 235.047 224.52C235.513 224.693 236.067 224.78 236.707 224.78C237.507 224.78 238.12 224.647 238.547 224.38C238.987 224.113 239.207 223.747 239.207 223.28C239.207 222.907 239.087 222.62 238.847 222.42C238.607 222.207 238.273 222.04 237.847 221.92C237.42 221.787 236.927 221.667 236.367 221.56C235.873 221.453 235.387 221.333 234.907 221.2C234.44 221.067 234.007 220.893 233.607 220.68C233.207 220.453 232.887 220.16 232.647 219.8C232.42 219.44 232.307 218.993 232.307 218.46C232.307 217.833 232.467 217.293 232.787 216.84C233.12 216.387 233.593 216.033 234.207 215.78C234.82 215.527 235.553 215.4 236.407 215.4C237.247 215.4 237.967 215.533 238.567 215.8C239.18 216.053 239.66 216.42 240.007 216.9C240.353 217.367 240.547 217.92 240.587 218.56L239.007 218.96C238.993 218.493 238.873 218.107 238.647 217.8C238.433 217.493 238.127 217.267 237.727 217.12C237.327 216.96 236.867 216.88 236.347 216.88C235.627 216.88 235.06 217.013 234.647 217.28C234.247 217.547 234.047 217.913 234.047 218.38C234.047 218.74 234.167 219.027 234.407 219.24C234.66 219.453 234.993 219.62 235.407 219.74C235.833 219.847 236.313 219.96 236.847 220.08C237.367 220.187 237.867 220.307 238.347 220.44C238.84 220.573 239.28 220.747 239.667 220.96C240.053 221.173 240.36 221.46 240.587 221.82C240.813 222.167 240.927 222.62 240.927 223.18C240.927 223.847 240.747 224.413 240.387 224.88C240.04 225.333 239.54 225.68 238.887 225.92C238.247 226.147 237.487 226.26 236.607 226.26ZM248.391 226.26C247.404 226.26 246.531 226.047 245.771 225.62C245.024 225.18 244.437 224.56 244.011 223.76C243.584 222.947 243.371 221.953 243.371 220.78C243.371 219.58 243.591 218.587 244.031 217.8C244.484 217 245.084 216.4 245.831 216C246.591 215.6 247.431 215.4 248.351 215.4C249.297 215.4 250.151 215.613 250.911 216.04C251.671 216.453 252.271 217.067 252.711 217.88C253.151 218.68 253.371 219.673 253.371 220.86C253.371 222.06 253.151 223.06 252.711 223.86C252.271 224.66 251.671 225.26 250.911 225.66C250.164 226.06 249.324 226.26 248.391 226.26ZM248.451 224.76C249.091 224.76 249.637 224.607 250.091 224.3C250.557 223.993 250.911 223.553 251.151 222.98C251.404 222.393 251.531 221.707 251.531 220.92C251.531 220.107 251.397 219.407 251.131 218.82C250.877 218.22 250.511 217.76 250.031 217.44C249.551 217.107 248.977 216.94 248.311 216.94C247.684 216.94 247.137 217.093 246.671 217.4C246.204 217.693 245.844 218.127 245.591 218.7C245.351 219.26 245.231 219.94 245.231 220.74C245.231 221.993 245.517 222.98 246.091 223.7C246.677 224.407 247.464 224.76 248.451 224.76ZM256.442 226V219.7L256.422 215.66H258.082L257.902 219.06H258.202C258.389 218.22 258.636 217.533 258.942 217C259.262 216.453 259.662 216.053 260.142 215.8C260.636 215.533 261.209 215.4 261.862 215.4C263.009 215.4 263.876 215.813 264.462 216.64C265.049 217.453 265.342 218.68 265.342 220.32V226H263.502V220.46C263.502 219.287 263.322 218.42 262.962 217.86C262.602 217.3 262.062 217.02 261.342 217.02C260.716 217.02 260.176 217.227 259.722 217.64C259.269 218.04 258.916 218.573 258.662 219.24C258.422 219.907 258.289 220.64 258.262 221.44V226H256.442ZM277.675 226.2C276.715 226.2 276.002 225.94 275.535 225.42C275.068 224.9 274.835 224.107 274.835 223.04V217.18H273.275L273.295 215.66H274.275C274.608 215.66 274.848 215.6 274.995 215.48C275.155 215.36 275.248 215.16 275.275 214.88L275.475 213.32H276.595V215.66H279.575V217.2H276.595V223C276.595 223.533 276.715 223.92 276.955 224.16C277.208 224.387 277.568 224.5 278.035 224.5C278.288 224.5 278.548 224.467 278.815 224.4C279.095 224.333 279.368 224.2 279.635 224V225.82C279.248 225.967 278.888 226.067 278.555 226.12C278.235 226.173 277.942 226.2 277.675 226.2ZM282.337 226V219.86L282.317 212.02H284.197V215.22C284.197 215.5 284.184 215.8 284.157 216.12C284.144 216.427 284.117 216.74 284.077 217.06C284.05 217.38 284.017 217.707 283.977 218.04C283.937 218.36 283.89 218.687 283.837 219.02H284.177C284.364 218.207 284.61 217.533 284.917 217C285.224 216.467 285.61 216.067 286.077 215.8C286.544 215.533 287.104 215.4 287.757 215.4C288.917 215.4 289.784 215.813 290.357 216.64C290.944 217.453 291.237 218.673 291.237 220.3V226H289.397V220.48C289.397 219.28 289.21 218.407 288.837 217.86C288.477 217.3 287.937 217.02 287.217 217.02C286.59 217.02 286.064 217.207 285.637 217.58C285.224 217.94 284.89 218.44 284.637 219.08C284.397 219.707 284.237 220.433 284.157 221.26V226H282.337ZM299.231 226.26C298.418 226.26 297.698 226.14 297.071 225.9C296.458 225.647 295.938 225.287 295.511 224.82C295.084 224.353 294.764 223.8 294.551 223.16C294.338 222.52 294.231 221.8 294.231 221C294.231 220.187 294.338 219.44 294.551 218.76C294.764 218.08 295.078 217.487 295.491 216.98C295.904 216.473 296.411 216.087 297.011 215.82C297.611 215.54 298.298 215.4 299.071 215.4C299.751 215.4 300.371 215.513 300.931 215.74C301.491 215.967 301.964 216.32 302.351 216.8C302.751 217.267 303.051 217.86 303.251 218.58C303.451 219.287 303.531 220.12 303.491 221.08L295.371 221.14V219.9L302.391 219.84L301.771 220.68C301.838 219.84 301.758 219.147 301.531 218.6C301.304 218.053 300.978 217.64 300.551 217.36C300.138 217.08 299.644 216.94 299.071 216.94C298.458 216.94 297.918 217.1 297.451 217.42C296.984 217.74 296.624 218.2 296.371 218.8C296.131 219.4 296.011 220.127 296.011 220.98C296.011 222.207 296.284 223.147 296.831 223.8C297.378 224.44 298.191 224.76 299.271 224.76C299.684 224.76 300.044 224.713 300.351 224.62C300.671 224.513 300.938 224.373 301.151 224.2C301.378 224.013 301.558 223.8 301.691 223.56C301.838 223.32 301.951 223.06 302.031 222.78L303.631 223.16C303.511 223.64 303.324 224.073 303.071 224.46C302.831 224.833 302.524 225.153 302.151 225.42C301.791 225.687 301.371 225.893 300.891 226.04C300.411 226.187 299.858 226.26 299.231 226.26ZM306.58 226V220.4V215.66H308.22L308.06 219.26H308.4C308.52 218.473 308.707 217.793 308.96 217.22C309.213 216.647 309.547 216.2 309.96 215.88C310.387 215.56 310.913 215.4 311.54 215.4C311.673 215.4 311.827 215.413 312 215.44C312.173 215.453 312.373 215.5 312.6 215.58L312.5 217.48C312.3 217.4 312.1 217.347 311.9 217.32C311.7 217.28 311.507 217.26 311.32 217.26C310.8 217.26 310.347 217.427 309.96 217.76C309.587 218.093 309.273 218.547 309.02 219.12C308.767 219.68 308.56 220.313 308.4 221.02V226H306.58ZM317.292 226.26C316.732 226.26 316.225 226.153 315.772 225.94C315.319 225.713 314.959 225.387 314.692 224.96C314.425 224.52 314.292 223.967 314.292 223.3C314.292 222.807 314.379 222.373 314.552 222C314.739 221.627 315.019 221.307 315.392 221.04C315.779 220.773 316.272 220.553 316.872 220.38C317.472 220.207 318.205 220.06 319.072 219.94C319.565 219.873 319.965 219.807 320.272 219.74C320.592 219.673 320.825 219.567 320.972 219.42C321.119 219.26 321.192 219.027 321.192 218.72C321.192 218.213 321.019 217.787 320.672 217.44C320.325 217.093 319.779 216.92 319.032 216.92C318.645 216.92 318.252 216.987 317.852 217.12C317.452 217.253 317.099 217.48 316.792 217.8C316.499 218.107 316.312 218.54 316.232 219.1L314.552 218.54C314.659 218.06 314.832 217.627 315.072 217.24C315.325 216.853 315.645 216.527 316.032 216.26C316.419 215.98 316.865 215.767 317.372 215.62C317.892 215.473 318.465 215.4 319.092 215.4C319.959 215.4 320.679 215.547 321.252 215.84C321.839 216.133 322.272 216.587 322.552 217.2C322.845 217.8 322.992 218.573 322.992 219.52V221.82C322.992 222.233 322.999 222.687 323.012 223.18C323.039 223.66 323.072 224.147 323.112 224.64C323.152 225.12 323.192 225.573 323.232 226H321.552C321.512 225.573 321.472 225.147 321.432 224.72C321.405 224.293 321.385 223.867 321.372 223.44H321.112C320.912 223.933 320.645 224.393 320.312 224.82C319.979 225.247 319.559 225.593 319.052 225.86C318.559 226.127 317.972 226.26 317.292 226.26ZM317.832 224.78C318.125 224.78 318.419 224.733 318.712 224.64C319.019 224.547 319.319 224.393 319.612 224.18C319.919 223.967 320.205 223.693 320.472 223.36C320.752 223.027 320.999 222.627 321.212 222.16V220.16L321.732 220.26C321.519 220.473 321.232 220.633 320.872 220.74C320.525 220.847 320.139 220.933 319.712 221C319.285 221.067 318.859 221.14 318.432 221.22C318.005 221.287 317.612 221.393 317.252 221.54C316.905 221.673 316.625 221.867 316.412 222.12C316.199 222.373 316.092 222.72 316.092 223.16C316.092 223.693 316.252 224.1 316.572 224.38C316.892 224.647 317.312 224.78 317.832 224.78ZM326.545 229.24V220.84V215.66H328.185L328.085 218.32H328.385C328.545 217.733 328.765 217.227 329.045 216.8C329.338 216.36 329.712 216.02 330.165 215.78C330.618 215.527 331.165 215.4 331.805 215.4C332.752 215.4 333.538 215.64 334.165 216.12C334.805 216.587 335.285 217.233 335.605 218.06C335.925 218.873 336.085 219.8 336.085 220.84C336.085 221.88 335.925 222.807 335.605 223.62C335.285 224.433 334.812 225.08 334.185 225.56C333.572 226.027 332.818 226.26 331.925 226.26C331.205 226.26 330.605 226.113 330.125 225.82C329.658 225.513 329.285 225.113 329.005 224.62C328.725 224.127 328.505 223.613 328.345 223.08H328.005C328.085 223.44 328.152 223.813 328.205 224.2C328.258 224.587 328.298 224.973 328.325 225.36C328.365 225.733 328.385 226.093 328.385 226.44V229.24H326.545ZM331.465 224.68C332.052 224.68 332.545 224.513 332.945 224.18C333.345 223.833 333.652 223.367 333.865 222.78C334.078 222.193 334.185 221.533 334.185 220.8C334.185 220.013 334.072 219.34 333.845 218.78C333.632 218.22 333.325 217.787 332.925 217.48C332.525 217.16 332.038 217 331.465 217C330.972 217 330.532 217.113 330.145 217.34C329.772 217.553 329.452 217.847 329.185 218.22C328.918 218.58 328.712 218.98 328.565 219.42C328.432 219.847 328.365 220.273 328.365 220.7V220.94C328.365 221.207 328.405 221.507 328.485 221.84C328.565 222.16 328.685 222.487 328.845 222.82C329.005 223.153 329.205 223.46 329.445 223.74C329.698 224.02 329.992 224.247 330.325 224.42C330.658 224.593 331.038 224.68 331.465 224.68ZM342.796 229.48C342.249 229.48 341.709 229.413 341.176 229.28C340.656 229.16 340.176 228.973 339.736 228.72C339.296 228.467 338.936 228.14 338.656 227.74L339.576 226.42C339.883 226.873 340.316 227.22 340.876 227.46C341.436 227.7 342.049 227.82 342.716 227.82C343.463 227.82 344.083 227.653 344.576 227.32C345.083 227 345.463 226.5 345.716 225.82C345.969 225.127 346.103 224.267 346.116 223.24L346.336 221.16H345.956C345.809 222.133 345.576 222.913 345.256 223.5C344.949 224.073 344.563 224.487 344.096 224.74C343.643 224.993 343.116 225.12 342.516 225.12C341.769 225.12 341.136 224.933 340.616 224.56C340.109 224.173 339.723 223.613 339.456 222.88C339.189 222.133 339.056 221.227 339.056 220.16V215.66H340.876V219.76C340.876 221.053 341.056 222.007 341.416 222.62C341.789 223.22 342.343 223.52 343.076 223.52C343.476 223.52 343.836 223.42 344.156 223.22C344.476 223.02 344.749 222.727 344.976 222.34C345.216 221.953 345.403 221.467 345.536 220.88C345.683 220.28 345.776 219.587 345.816 218.8V215.66H347.636V223.34C347.636 224.153 347.576 224.887 347.456 225.54C347.336 226.193 347.143 226.76 346.876 227.24C346.623 227.733 346.303 228.147 345.916 228.48C345.529 228.813 345.076 229.06 344.556 229.22C344.036 229.393 343.449 229.48 342.796 229.48ZM65.38 252.26C64.6733 252.26 64.04 252.18 63.48 252.02C62.92 251.873 62.4467 251.66 62.06 251.38C61.6867 251.087 61.4 250.74 61.2 250.34C61 249.927 60.9 249.473 60.9 248.98L62.46 248.58C62.4333 249.047 62.54 249.447 62.78 249.78C63.02 250.1 63.3667 250.347 63.82 250.52C64.2867 250.693 64.84 250.78 65.48 250.78C66.28 250.78 66.8933 250.647 67.32 250.38C67.76 250.113 67.98 249.747 67.98 249.28C67.98 248.907 67.86 248.62 67.62 248.42C67.38 248.207 67.0467 248.04 66.62 247.92C66.1933 247.787 65.7 247.667 65.14 247.56C64.6467 247.453 64.16 247.333 63.68 247.2C63.2133 247.067 62.78 246.893 62.38 246.68C61.98 246.453 61.66 246.16 61.42 245.8C61.1933 245.44 61.08 244.993 61.08 244.46C61.08 243.833 61.24 243.293 61.56 242.84C61.8933 242.387 62.3667 242.033 62.98 241.78C63.5933 241.527 64.3267 241.4 65.18 241.4C66.02 241.4 66.74 241.533 67.34 241.8C67.9533 242.053 68.4333 242.42 68.78 242.9C69.1267 243.367 69.32 243.92 69.36 244.56L67.78 244.96C67.7667 244.493 67.6467 244.107 67.42 243.8C67.2067 243.493 66.9 243.267 66.5 243.12C66.1 242.96 65.64 242.88 65.12 242.88C64.4 242.88 63.8333 243.013 63.42 243.28C63.02 243.547 62.82 243.913 62.82 244.38C62.82 244.74 62.94 245.027 63.18 245.24C63.4333 245.453 63.7667 245.62 64.18 245.74C64.6067 245.847 65.0867 245.96 65.62 246.08C66.14 246.187 66.64 246.307 67.12 246.44C67.6133 246.573 68.0533 246.747 68.44 246.96C68.8267 247.173 69.1333 247.46 69.36 247.82C69.5867 248.167 69.7 248.62 69.7 249.18C69.7 249.847 69.52 250.413 69.16 250.88C68.8133 251.333 68.3133 251.68 67.66 251.92C67.02 252.147 66.26 252.26 65.38 252.26ZM77.1645 252.26C76.3512 252.26 75.6312 252.14 75.0045 251.9C74.3912 251.647 73.8712 251.287 73.4445 250.82C73.0179 250.353 72.6979 249.8 72.4845 249.16C72.2712 248.52 72.1645 247.8 72.1645 247C72.1645 246.187 72.2712 245.44 72.4845 244.76C72.6979 244.08 73.0112 243.487 73.4245 242.98C73.8379 242.473 74.3445 242.087 74.9445 241.82C75.5445 241.54 76.2312 241.4 77.0045 241.4C77.6845 241.4 78.3045 241.513 78.8645 241.74C79.4245 241.967 79.8979 242.32 80.2845 242.8C80.6845 243.267 80.9845 243.86 81.1845 244.58C81.3845 245.287 81.4645 246.12 81.4245 247.08L73.3045 247.14V245.9L80.3245 245.84L79.7045 246.68C79.7712 245.84 79.6912 245.147 79.4645 244.6C79.2379 244.053 78.9112 243.64 78.4845 243.36C78.0712 243.08 77.5779 242.94 77.0045 242.94C76.3912 242.94 75.8512 243.1 75.3845 243.42C74.9179 243.74 74.5579 244.2 74.3045 244.8C74.0645 245.4 73.9445 246.127 73.9445 246.98C73.9445 248.207 74.2179 249.147 74.7645 249.8C75.3112 250.44 76.1245 250.76 77.2045 250.76C77.6179 250.76 77.9779 250.713 78.2845 250.62C78.6045 250.513 78.8712 250.373 79.0845 250.2C79.3112 250.013 79.4912 249.8 79.6245 249.56C79.7712 249.32 79.8845 249.06 79.9645 248.78L81.5645 249.16C81.4445 249.64 81.2579 250.073 81.0045 250.46C80.7645 250.833 80.4579 251.153 80.0845 251.42C79.7245 251.687 79.3045 251.893 78.8245 252.04C78.3445 252.187 77.7912 252.26 77.1645 252.26ZM88.4698 252.26C87.7632 252.26 87.1298 252.18 86.5698 252.02C86.0098 251.873 85.5365 251.66 85.1498 251.38C84.7765 251.087 84.4898 250.74 84.2898 250.34C84.0898 249.927 83.9898 249.473 83.9898 248.98L85.5498 248.58C85.5232 249.047 85.6298 249.447 85.8698 249.78C86.1098 250.1 86.4565 250.347 86.9098 250.52C87.3765 250.693 87.9298 250.78 88.5698 250.78C89.3698 250.78 89.9832 250.647 90.4098 250.38C90.8498 250.113 91.0698 249.747 91.0698 249.28C91.0698 248.907 90.9498 248.62 90.7098 248.42C90.4698 248.207 90.1365 248.04 89.7098 247.92C89.2832 247.787 88.7898 247.667 88.2298 247.56C87.7365 247.453 87.2498 247.333 86.7698 247.2C86.3032 247.067 85.8698 246.893 85.4698 246.68C85.0698 246.453 84.7498 246.16 84.5098 245.8C84.2832 245.44 84.1698 244.993 84.1698 244.46C84.1698 243.833 84.3298 243.293 84.6498 242.84C84.9832 242.387 85.4565 242.033 86.0698 241.78C86.6832 241.527 87.4165 241.4 88.2698 241.4C89.1098 241.4 89.8298 241.533 90.4298 241.8C91.0432 242.053 91.5232 242.42 91.8698 242.9C92.2165 243.367 92.4098 243.92 92.4498 244.56L90.8698 244.96C90.8565 244.493 90.7365 244.107 90.5098 243.8C90.2965 243.493 89.9898 243.267 89.5898 243.12C89.1898 242.96 88.7298 242.88 88.2098 242.88C87.4898 242.88 86.9232 243.013 86.5098 243.28C86.1098 243.547 85.9098 243.913 85.9098 244.38C85.9098 244.74 86.0298 245.027 86.2698 245.24C86.5232 245.453 86.8565 245.62 87.2698 245.74C87.6965 245.847 88.1765 245.96 88.7098 246.08C89.2298 246.187 89.7298 246.307 90.2098 246.44C90.7032 246.573 91.1432 246.747 91.5298 246.96C91.9165 247.173 92.2232 247.46 92.4498 247.82C92.6765 248.167 92.7898 248.62 92.7898 249.18C92.7898 249.847 92.6098 250.413 92.2498 250.88C91.9032 251.333 91.4032 251.68 90.7498 251.92C90.1098 252.147 89.3498 252.26 88.4698 252.26ZM99.7511 252.26C99.0444 252.26 98.4111 252.18 97.8511 252.02C97.2911 251.873 96.8178 251.66 96.4311 251.38C96.0578 251.087 95.7711 250.74 95.5711 250.34C95.3711 249.927 95.2711 249.473 95.2711 248.98L96.8311 248.58C96.8044 249.047 96.9111 249.447 97.1511 249.78C97.3911 250.1 97.7378 250.347 98.1911 250.52C98.6578 250.693 99.2111 250.78 99.8511 250.78C100.651 250.78 101.264 250.647 101.691 250.38C102.131 250.113 102.351 249.747 102.351 249.28C102.351 248.907 102.231 248.62 101.991 248.42C101.751 248.207 101.418 248.04 100.991 247.92C100.564 247.787 100.071 247.667 99.5111 247.56C99.0178 247.453 98.5311 247.333 98.0511 247.2C97.5844 247.067 97.1511 246.893 96.7511 246.68C96.3511 246.453 96.0311 246.16 95.7911 245.8C95.5644 245.44 95.4511 244.993 95.4511 244.46C95.4511 243.833 95.6111 243.293 95.9311 242.84C96.2644 242.387 96.7378 242.033 97.3511 241.78C97.9644 241.527 98.6978 241.4 99.5511 241.4C100.391 241.4 101.111 241.533 101.711 241.8C102.324 242.053 102.804 242.42 103.151 242.9C103.498 243.367 103.691 243.92 103.731 244.56L102.151 244.96C102.138 244.493 102.018 244.107 101.791 243.8C101.578 243.493 101.271 243.267 100.871 243.12C100.471 242.96 100.011 242.88 99.4911 242.88C98.7711 242.88 98.2044 243.013 97.7911 243.28C97.3911 243.547 97.1911 243.913 97.1911 244.38C97.1911 244.74 97.3111 245.027 97.5511 245.24C97.8044 245.453 98.1378 245.62 98.5511 245.74C98.9778 245.847 99.4578 245.96 99.9911 246.08C100.511 246.187 101.011 246.307 101.491 246.44C101.984 246.573 102.424 246.747 102.811 246.96C103.198 247.173 103.504 247.46 103.731 247.82C103.958 248.167 104.071 248.62 104.071 249.18C104.071 249.847 103.891 250.413 103.531 250.88C103.184 251.333 102.684 251.68 102.031 251.92C101.391 252.147 100.631 252.26 99.7511 252.26ZM107.056 252V241.66H108.876V252H107.056ZM107.956 239.9C107.543 239.9 107.229 239.813 107.016 239.64C106.803 239.467 106.696 239.207 106.696 238.86C106.696 238.527 106.803 238.273 107.016 238.1C107.229 237.913 107.543 237.82 107.956 237.82C108.383 237.82 108.703 237.907 108.916 238.08C109.129 238.253 109.236 238.513 109.236 238.86C109.236 239.193 109.123 239.453 108.896 239.64C108.683 239.813 108.369 239.9 107.956 239.9ZM116.996 252.26C116.009 252.26 115.136 252.047 114.376 251.62C113.629 251.18 113.043 250.56 112.616 249.76C112.189 248.947 111.976 247.953 111.976 246.78C111.976 245.58 112.196 244.587 112.636 243.8C113.089 243 113.689 242.4 114.436 242C115.196 241.6 116.036 241.4 116.956 241.4C117.903 241.4 118.756 241.613 119.516 242.04C120.276 242.453 120.876 243.067 121.316 243.88C121.756 244.68 121.976 245.673 121.976 246.86C121.976 248.06 121.756 249.06 121.316 249.86C120.876 250.66 120.276 251.26 119.516 251.66C118.769 252.06 117.929 252.26 116.996 252.26ZM117.056 250.76C117.696 250.76 118.243 250.607 118.696 250.3C119.163 249.993 119.516 249.553 119.756 248.98C120.009 248.393 120.136 247.707 120.136 246.92C120.136 246.107 120.003 245.407 119.736 244.82C119.483 244.22 119.116 243.76 118.636 243.44C118.156 243.107 117.583 242.94 116.916 242.94C116.289 242.94 115.743 243.093 115.276 243.4C114.809 243.693 114.449 244.127 114.196 244.7C113.956 245.26 113.836 245.94 113.836 246.74C113.836 247.993 114.123 248.98 114.696 249.7C115.283 250.407 116.069 250.76 117.056 250.76ZM125.048 252V245.7L125.028 241.66H126.688L126.508 245.06H126.808C126.994 244.22 127.241 243.533 127.548 243C127.868 242.453 128.268 242.053 128.748 241.8C129.241 241.533 129.814 241.4 130.468 241.4C131.614 241.4 132.481 241.813 133.068 242.64C133.654 243.453 133.948 244.68 133.948 246.32V252H132.108V246.46C132.108 245.287 131.928 244.42 131.568 243.86C131.208 243.3 130.668 243.02 129.948 243.02C129.321 243.02 128.781 243.227 128.328 243.64C127.874 244.04 127.521 244.573 127.268 245.24C127.028 245.907 126.894 246.64 126.868 247.44V252H125.048ZM141.302 252.26C140.595 252.26 139.962 252.18 139.402 252.02C138.842 251.873 138.369 251.66 137.982 251.38C137.609 251.087 137.322 250.74 137.122 250.34C136.922 249.927 136.822 249.473 136.822 248.98L138.382 248.58C138.355 249.047 138.462 249.447 138.702 249.78C138.942 250.1 139.289 250.347 139.742 250.52C140.209 250.693 140.762 250.78 141.402 250.78C142.202 250.78 142.815 250.647 143.242 250.38C143.682 250.113 143.902 249.747 143.902 249.28C143.902 248.907 143.782 248.62 143.542 248.42C143.302 248.207 142.969 248.04 142.542 247.92C142.115 247.787 141.622 247.667 141.062 247.56C140.569 247.453 140.082 247.333 139.602 247.2C139.135 247.067 138.702 246.893 138.302 246.68C137.902 246.453 137.582 246.16 137.342 245.8C137.115 245.44 137.002 244.993 137.002 244.46C137.002 243.833 137.162 243.293 137.482 242.84C137.815 242.387 138.289 242.033 138.902 241.78C139.515 241.527 140.249 241.4 141.102 241.4C141.942 241.4 142.662 241.533 143.262 241.8C143.875 242.053 144.355 242.42 144.702 242.9C145.049 243.367 145.242 243.92 145.282 244.56L143.702 244.96C143.689 244.493 143.569 244.107 143.342 243.8C143.129 243.493 142.822 243.267 142.422 243.12C142.022 242.96 141.562 242.88 141.042 242.88C140.322 242.88 139.755 243.013 139.342 243.28C138.942 243.547 138.742 243.913 138.742 244.38C138.742 244.74 138.862 245.027 139.102 245.24C139.355 245.453 139.689 245.62 140.102 245.74C140.529 245.847 141.009 245.96 141.542 246.08C142.062 246.187 142.562 246.307 143.042 246.44C143.535 246.573 143.975 246.747 144.362 246.96C144.749 247.173 145.055 247.46 145.282 247.82C145.509 248.167 145.622 248.62 145.622 249.18C145.622 249.847 145.442 250.413 145.082 250.88C144.735 251.333 144.235 251.68 143.582 251.92C142.942 252.147 142.182 252.26 141.302 252.26ZM155.826 252L153.086 241.66H154.966L157.006 250.46H157.326L159.506 241.66H161.866L164.066 250.46H164.366L166.406 241.66H168.266L165.486 252H162.926L160.786 243.22H160.546L158.406 252H155.826ZM170.818 252V241.66H172.638V252H170.818ZM171.718 239.9C171.304 239.9 170.991 239.813 170.778 239.64C170.564 239.467 170.458 239.207 170.458 238.86C170.458 238.527 170.564 238.273 170.778 238.1C170.991 237.913 171.304 237.82 171.718 237.82C172.144 237.82 172.464 237.907 172.678 238.08C172.891 238.253 172.998 238.513 172.998 238.86C172.998 239.193 172.884 239.453 172.658 239.64C172.444 239.813 172.131 239.9 171.718 239.9ZM179.558 252.2C178.598 252.2 177.884 251.94 177.418 251.42C176.951 250.9 176.718 250.107 176.718 249.04V243.18H175.158L175.178 241.66H176.158C176.491 241.66 176.731 241.6 176.878 241.48C177.038 241.36 177.131 241.16 177.158 240.88L177.358 239.32H178.478V241.66H181.458V243.2H178.478V249C178.478 249.533 178.598 249.92 178.838 250.16C179.091 250.387 179.451 250.5 179.918 250.5C180.171 250.5 180.431 250.467 180.698 250.4C180.978 250.333 181.251 250.2 181.518 250V251.82C181.131 251.967 180.771 252.067 180.438 252.12C180.118 252.173 179.824 252.2 179.558 252.2ZM184.22 252V245.86L184.2 238.02H186.08V241.22C186.08 241.5 186.066 241.8 186.04 242.12C186.026 242.427 186 242.74 185.96 243.06C185.933 243.38 185.9 243.707 185.86 244.04C185.82 244.36 185.773 244.687 185.72 245.02H186.06C186.246 244.207 186.493 243.533 186.8 243C187.106 242.467 187.493 242.067 187.96 241.8C188.426 241.533 188.986 241.4 189.64 241.4C190.8 241.4 191.666 241.813 192.24 242.64C192.826 243.453 193.12 244.673 193.12 246.3V252H191.28V246.48C191.28 245.28 191.093 244.407 190.72 243.86C190.36 243.3 189.82 243.02 189.1 243.02C188.473 243.02 187.946 243.207 187.52 243.58C187.106 243.94 186.773 244.44 186.52 245.08C186.28 245.707 186.12 246.433 186.04 247.26V252H184.22ZM202.232 252V238H204.052V252H202.232ZM207.673 252V241.66H209.493V252H207.673ZM208.573 239.9C208.16 239.9 207.847 239.813 207.633 239.64C207.42 239.467 207.313 239.207 207.313 238.86C207.313 238.527 207.42 238.273 207.633 238.1C207.847 237.913 208.16 237.82 208.573 237.82C209 237.82 209.32 237.907 209.533 238.08C209.747 238.253 209.853 238.513 209.853 238.86C209.853 239.193 209.74 239.453 209.513 239.64C209.3 239.813 208.987 239.9 208.573 239.9ZM217.593 252.26C216.7 252.26 215.933 252.12 215.293 251.84C214.667 251.547 214.153 251.153 213.753 250.66C213.367 250.153 213.08 249.58 212.893 248.94C212.707 248.3 212.613 247.633 212.613 246.94C212.613 246.167 212.713 245.447 212.913 244.78C213.127 244.113 213.433 243.527 213.833 243.02C214.247 242.513 214.753 242.12 215.353 241.84C215.967 241.547 216.68 241.4 217.493 241.4C218.28 241.4 218.973 241.54 219.573 241.82C220.187 242.1 220.68 242.493 221.053 243C221.427 243.493 221.66 244.08 221.753 244.76L220.033 245.22C219.993 244.833 219.873 244.467 219.673 244.12C219.487 243.773 219.207 243.493 218.833 243.28C218.46 243.053 218 242.94 217.453 242.94C216.96 242.94 216.527 243.04 216.153 243.24C215.78 243.427 215.467 243.7 215.213 244.06C214.973 244.42 214.787 244.84 214.653 245.32C214.52 245.787 214.453 246.313 214.453 246.9C214.453 247.673 214.567 248.347 214.793 248.92C215.02 249.493 215.367 249.94 215.833 250.26C216.3 250.58 216.893 250.74 217.613 250.74C218.173 250.74 218.647 250.64 219.033 250.44C219.42 250.24 219.72 249.967 219.933 249.62C220.16 249.26 220.307 248.833 220.373 248.34L222.053 248.7C221.96 249.287 221.787 249.8 221.533 250.24C221.293 250.68 220.98 251.053 220.593 251.36C220.22 251.653 219.78 251.873 219.273 252.02C218.767 252.18 218.207 252.26 217.593 252.26ZM229.11 252.26C228.297 252.26 227.577 252.14 226.95 251.9C226.337 251.647 225.817 251.287 225.39 250.82C224.963 250.353 224.643 249.8 224.43 249.16C224.217 248.52 224.11 247.8 224.11 247C224.11 246.187 224.217 245.44 224.43 244.76C224.643 244.08 224.957 243.487 225.37 242.98C225.783 242.473 226.29 242.087 226.89 241.82C227.49 241.54 228.177 241.4 228.95 241.4C229.63 241.4 230.25 241.513 230.81 241.74C231.37 241.967 231.843 242.32 232.23 242.8C232.63 243.267 232.93 243.86 233.13 244.58C233.33 245.287 233.41 246.12 233.37 247.08L225.25 247.14V245.9L232.27 245.84L231.65 246.68C231.717 245.84 231.637 245.147 231.41 244.6C231.183 244.053 230.857 243.64 230.43 243.36C230.017 243.08 229.523 242.94 228.95 242.94C228.337 242.94 227.797 243.1 227.33 243.42C226.863 243.74 226.503 244.2 226.25 244.8C226.01 245.4 225.89 246.127 225.89 246.98C225.89 248.207 226.163 249.147 226.71 249.8C227.257 250.44 228.07 250.76 229.15 250.76C229.563 250.76 229.923 250.713 230.23 250.62C230.55 250.513 230.817 250.373 231.03 250.2C231.257 250.013 231.437 249.8 231.57 249.56C231.717 249.32 231.83 249.06 231.91 248.78L233.51 249.16C233.39 249.64 233.203 250.073 232.95 250.46C232.71 250.833 232.403 251.153 232.03 251.42C231.67 251.687 231.25 251.893 230.77 252.04C230.29 252.187 229.737 252.26 229.11 252.26ZM236.419 252V245.7L236.399 241.66H238.059L237.879 245.06H238.179C238.366 244.22 238.612 243.533 238.919 243C239.239 242.453 239.639 242.053 240.119 241.8C240.612 241.533 241.186 241.4 241.839 241.4C242.986 241.4 243.852 241.813 244.439 242.64C245.026 243.453 245.319 244.68 245.319 246.32V252H243.479V246.46C243.479 245.287 243.299 244.42 242.939 243.86C242.579 243.3 242.039 243.02 241.319 243.02C240.692 243.02 240.152 243.227 239.699 243.64C239.246 244.04 238.892 244.573 238.639 245.24C238.399 245.907 238.266 246.64 238.239 247.44V252H236.419ZM252.673 252.26C251.966 252.26 251.333 252.18 250.773 252.02C250.213 251.873 249.74 251.66 249.353 251.38C248.98 251.087 248.693 250.74 248.493 250.34C248.293 249.927 248.193 249.473 248.193 248.98L249.753 248.58C249.726 249.047 249.833 249.447 250.073 249.78C250.313 250.1 250.66 250.347 251.113 250.52C251.58 250.693 252.133 250.78 252.773 250.78C253.573 250.78 254.186 250.647 254.613 250.38C255.053 250.113 255.273 249.747 255.273 249.28C255.273 248.907 255.153 248.62 254.913 248.42C254.673 248.207 254.34 248.04 253.913 247.92C253.486 247.787 252.993 247.667 252.433 247.56C251.94 247.453 251.453 247.333 250.973 247.2C250.506 247.067 250.073 246.893 249.673 246.68C249.273 246.453 248.953 246.16 248.713 245.8C248.486 245.44 248.373 244.993 248.373 244.46C248.373 243.833 248.533 243.293 248.853 242.84C249.186 242.387 249.66 242.033 250.273 241.78C250.886 241.527 251.62 241.4 252.473 241.4C253.313 241.4 254.033 241.533 254.633 241.8C255.246 242.053 255.726 242.42 256.073 242.9C256.42 243.367 256.613 243.92 256.653 244.56L255.073 244.96C255.06 244.493 254.94 244.107 254.713 243.8C254.5 243.493 254.193 243.267 253.793 243.12C253.393 242.96 252.933 242.88 252.413 242.88C251.693 242.88 251.126 243.013 250.713 243.28C250.313 243.547 250.113 243.913 250.113 244.38C250.113 244.74 250.233 245.027 250.473 245.24C250.726 245.453 251.06 245.62 251.473 245.74C251.9 245.847 252.38 245.96 252.913 246.08C253.433 246.187 253.933 246.307 254.413 246.44C254.906 246.573 255.346 246.747 255.733 246.96C256.12 247.173 256.426 247.46 256.653 247.82C256.88 248.167 256.993 248.62 256.993 249.18C256.993 249.847 256.813 250.413 256.453 250.88C256.106 251.333 255.606 251.68 254.953 251.92C254.313 252.147 253.553 252.26 252.673 252.26ZM264.458 252.26C263.644 252.26 262.924 252.14 262.298 251.9C261.684 251.647 261.164 251.287 260.738 250.82C260.311 250.353 259.991 249.8 259.778 249.16C259.564 248.52 259.458 247.8 259.458 247C259.458 246.187 259.564 245.44 259.778 244.76C259.991 244.08 260.304 243.487 260.718 242.98C261.131 242.473 261.638 242.087 262.238 241.82C262.838 241.54 263.524 241.4 264.298 241.4C264.978 241.4 265.598 241.513 266.158 241.74C266.718 241.967 267.191 242.32 267.578 242.8C267.978 243.267 268.278 243.86 268.478 244.58C268.678 245.287 268.758 246.12 268.717 247.08L260.598 247.14V245.9L267.618 245.84L266.998 246.68C267.064 245.84 266.984 245.147 266.758 244.6C266.531 244.053 266.204 243.64 265.778 243.36C265.364 243.08 264.871 242.94 264.298 242.94C263.684 242.94 263.144 243.1 262.678 243.42C262.211 243.74 261.851 244.2 261.598 244.8C261.358 245.4 261.238 246.127 261.238 246.98C261.238 248.207 261.511 249.147 262.058 249.8C262.604 250.44 263.418 250.76 264.498 250.76C264.911 250.76 265.271 250.713 265.578 250.62C265.898 250.513 266.164 250.373 266.378 250.2C266.604 250.013 266.784 249.8 266.918 249.56C267.064 249.32 267.178 249.06 267.258 248.78L268.858 249.16C268.738 249.64 268.551 250.073 268.298 250.46C268.058 250.833 267.751 251.153 267.378 251.42C267.018 251.687 266.598 251.893 266.118 252.04C265.638 252.187 265.084 252.26 264.458 252.26ZM275.525 252.26C274.645 252.26 273.891 252.027 273.265 251.56C272.638 251.093 272.158 250.453 271.825 249.64C271.505 248.827 271.345 247.893 271.345 246.84C271.345 245.787 271.505 244.853 271.825 244.04C272.145 243.227 272.611 242.587 273.225 242.12C273.838 241.653 274.591 241.42 275.485 241.42C276.218 241.42 276.818 241.573 277.285 241.88C277.751 242.187 278.125 242.587 278.405 243.08C278.698 243.56 278.911 244.087 279.045 244.66H279.405C279.338 244.273 279.278 243.873 279.225 243.46C279.171 243.033 279.125 242.62 279.085 242.22C279.045 241.807 279.025 241.44 279.025 241.12V238H280.865V246.9V252H279.225L279.325 249.2H279.005C278.845 249.8 278.618 250.333 278.325 250.8C278.031 251.253 277.658 251.613 277.205 251.88C276.751 252.133 276.191 252.26 275.525 252.26ZM275.945 250.66C276.425 250.66 276.858 250.547 277.245 250.32C277.631 250.093 277.958 249.8 278.225 249.44C278.491 249.067 278.691 248.667 278.825 248.24C278.971 247.813 279.045 247.4 279.045 247V246.76C279.045 246.48 279.005 246.18 278.925 245.86C278.845 245.527 278.725 245.193 278.565 244.86C278.418 244.527 278.218 244.22 277.965 243.94C277.725 243.647 277.438 243.42 277.105 243.26C276.771 243.087 276.398 243 275.985 243C275.385 243 274.878 243.173 274.465 243.52C274.065 243.853 273.758 244.313 273.545 244.9C273.345 245.487 273.245 246.147 273.245 246.88C273.245 247.64 273.351 248.307 273.565 248.88C273.778 249.44 274.085 249.88 274.485 250.2C274.898 250.507 275.385 250.66 275.945 250.66ZM61.58 281.24V272.84V267.66H63.22L63.12 270.32H63.42C63.58 269.733 63.8 269.227 64.08 268.8C64.3733 268.36 64.7467 268.02 65.2 267.78C65.6533 267.527 66.2 267.4 66.84 267.4C67.7867 267.4 68.5733 267.64 69.2 268.12C69.84 268.587 70.32 269.233 70.64 270.06C70.96 270.873 71.12 271.8 71.12 272.84C71.12 273.88 70.96 274.807 70.64 275.62C70.32 276.433 69.8467 277.08 69.22 277.56C68.6067 278.027 67.8533 278.26 66.96 278.26C66.24 278.26 65.64 278.113 65.16 277.82C64.6933 277.513 64.32 277.113 64.04 276.62C63.76 276.127 63.54 275.613 63.38 275.08H63.04C63.12 275.44 63.1867 275.813 63.24 276.2C63.2933 276.587 63.3333 276.973 63.36 277.36C63.4 277.733 63.42 278.093 63.42 278.44V281.24H61.58ZM66.5 276.68C67.0867 276.68 67.58 276.513 67.98 276.18C68.38 275.833 68.6867 275.367 68.9 274.78C69.1133 274.193 69.22 273.533 69.22 272.8C69.22 272.013 69.1067 271.34 68.88 270.78C68.6667 270.22 68.36 269.787 67.96 269.48C67.56 269.16 67.0733 269 66.5 269C66.0067 269 65.5667 269.113 65.18 269.34C64.8067 269.553 64.4867 269.847 64.22 270.22C63.9533 270.58 63.7467 270.98 63.6 271.42C63.4667 271.847 63.4 272.273 63.4 272.7V272.94C63.4 273.207 63.44 273.507 63.52 273.84C63.6 274.16 63.72 274.487 63.88 274.82C64.04 275.153 64.24 275.46 64.48 275.74C64.7333 276.02 65.0267 276.247 65.36 276.42C65.6933 276.593 66.0733 276.68 66.5 276.68ZM74.248 278V272.4V267.66H75.888L75.728 271.26H76.068C76.188 270.473 76.3746 269.793 76.628 269.22C76.8813 268.647 77.2146 268.2 77.628 267.88C78.0546 267.56 78.5813 267.4 79.208 267.4C79.3413 267.4 79.4946 267.413 79.668 267.44C79.8413 267.453 80.0413 267.5 80.268 267.58L80.168 269.48C79.968 269.4 79.768 269.347 79.568 269.32C79.368 269.28 79.1746 269.26 78.988 269.26C78.468 269.26 78.0146 269.427 77.628 269.76C77.2546 270.093 76.9413 270.547 76.688 271.12C76.4346 271.68 76.228 272.313 76.068 273.02V278H74.248ZM87 278.26C86.0133 278.26 85.14 278.047 84.38 277.62C83.6333 277.18 83.0467 276.56 82.62 275.76C82.1933 274.947 81.98 273.953 81.98 272.78C81.98 271.58 82.2 270.587 82.64 269.8C83.0933 269 83.6933 268.4 84.44 268C85.2 267.6 86.04 267.4 86.96 267.4C87.9067 267.4 88.76 267.613 89.52 268.04C90.28 268.453 90.88 269.067 91.32 269.88C91.76 270.68 91.98 271.673 91.98 272.86C91.98 274.06 91.76 275.06 91.32 275.86C90.88 276.66 90.28 277.26 89.52 277.66C88.7733 278.06 87.9333 278.26 87 278.26ZM87.06 276.76C87.7 276.76 88.2467 276.607 88.7 276.3C89.1667 275.993 89.52 275.553 89.76 274.98C90.0133 274.393 90.14 273.707 90.14 272.92C90.14 272.107 90.0067 271.407 89.74 270.82C89.4867 270.22 89.12 269.76 88.64 269.44C88.16 269.107 87.5867 268.94 86.92 268.94C86.2933 268.94 85.7467 269.093 85.28 269.4C84.8133 269.693 84.4533 270.127 84.2 270.7C83.96 271.26 83.84 271.94 83.84 272.74C83.84 273.993 84.1267 274.98 84.7 275.7C85.2867 276.407 86.0733 276.76 87.06 276.76ZM95.8922 278V270.7H94.0522V269.24L96.6322 269.4V269.06C96.2989 268.927 96.0189 268.747 95.7922 268.52C95.5789 268.28 95.4122 268.007 95.2922 267.7C95.1855 267.393 95.1322 267.067 95.1322 266.72C95.1322 266.16 95.2522 265.673 95.4922 265.26C95.7455 264.847 96.0989 264.52 96.5522 264.28C97.0189 264.04 97.5722 263.92 98.2122 263.92C98.7189 263.92 99.1722 263.993 99.5722 264.14C99.9855 264.273 100.326 264.453 100.592 264.68L100.372 266.38C100.119 266.14 99.8122 265.953 99.4522 265.82C99.0922 265.673 98.7322 265.6 98.3722 265.6C97.9322 265.6 97.5722 265.74 97.2922 266.02C97.0122 266.3 96.8722 266.733 96.8722 267.32C96.8722 267.653 96.9189 267.94 97.0122 268.18C97.1055 268.42 97.2255 268.627 97.3722 268.8C97.5322 268.96 97.6922 269.093 97.8522 269.2H100.412L100.392 270.7H97.6922V278H95.8922ZM107.395 278.26C106.582 278.26 105.862 278.14 105.235 277.9C104.622 277.647 104.102 277.287 103.675 276.82C103.248 276.353 102.928 275.8 102.715 275.16C102.502 274.52 102.395 273.8 102.395 273C102.395 272.187 102.502 271.44 102.715 270.76C102.928 270.08 103.242 269.487 103.655 268.98C104.068 268.473 104.575 268.087 105.175 267.82C105.775 267.54 106.462 267.4 107.235 267.4C107.915 267.4 108.535 267.513 109.095 267.74C109.655 267.967 110.128 268.32 110.515 268.8C110.915 269.267 111.215 269.86 111.415 270.58C111.615 271.287 111.695 272.12 111.655 273.08L103.535 273.14V271.9L110.555 271.84L109.935 272.68C110.002 271.84 109.922 271.147 109.695 270.6C109.468 270.053 109.142 269.64 108.715 269.36C108.302 269.08 107.808 268.94 107.235 268.94C106.622 268.94 106.082 269.1 105.615 269.42C105.148 269.74 104.788 270.2 104.535 270.8C104.295 271.4 104.175 272.127 104.175 272.98C104.175 274.207 104.448 275.147 104.995 275.8C105.542 276.44 106.355 276.76 107.435 276.76C107.848 276.76 108.208 276.713 108.515 276.62C108.835 276.513 109.102 276.373 109.315 276.2C109.542 276.013 109.722 275.8 109.855 275.56C110.002 275.32 110.115 275.06 110.195 274.78L111.795 275.16C111.675 275.64 111.488 276.073 111.235 276.46C110.995 276.833 110.688 277.153 110.315 277.42C109.955 277.687 109.535 277.893 109.055 278.04C108.575 278.187 108.022 278.26 107.395 278.26ZM118.7 278.26C117.994 278.26 117.36 278.18 116.8 278.02C116.24 277.873 115.767 277.66 115.38 277.38C115.007 277.087 114.72 276.74 114.52 276.34C114.32 275.927 114.22 275.473 114.22 274.98L115.78 274.58C115.754 275.047 115.86 275.447 116.1 275.78C116.34 276.1 116.687 276.347 117.14 276.52C117.607 276.693 118.16 276.78 118.8 276.78C119.6 276.78 120.214 276.647 120.64 276.38C121.08 276.113 121.3 275.747 121.3 275.28C121.3 274.907 121.18 274.62 120.94 274.42C120.7 274.207 120.367 274.04 119.94 273.92C119.514 273.787 119.02 273.667 118.46 273.56C117.967 273.453 117.48 273.333 117 273.2C116.534 273.067 116.1 272.893 115.7 272.68C115.3 272.453 114.98 272.16 114.74 271.8C114.514 271.44 114.4 270.993 114.4 270.46C114.4 269.833 114.56 269.293 114.88 268.84C115.214 268.387 115.687 268.033 116.3 267.78C116.914 267.527 117.647 267.4 118.5 267.4C119.34 267.4 120.06 267.533 120.66 267.8C121.274 268.053 121.754 268.42 122.1 268.9C122.447 269.367 122.64 269.92 122.68 270.56L121.1 270.96C121.087 270.493 120.967 270.107 120.74 269.8C120.527 269.493 120.22 269.267 119.82 269.12C119.42 268.96 118.96 268.88 118.44 268.88C117.72 268.88 117.154 269.013 116.74 269.28C116.34 269.547 116.14 269.913 116.14 270.38C116.14 270.74 116.26 271.027 116.5 271.24C116.754 271.453 117.087 271.62 117.5 271.74C117.927 271.847 118.407 271.96 118.94 272.08C119.46 272.187 119.96 272.307 120.44 272.44C120.934 272.573 121.374 272.747 121.76 272.96C122.147 273.173 122.454 273.46 122.68 273.82C122.907 274.167 123.02 274.62 123.02 275.18C123.02 275.847 122.84 276.413 122.48 276.88C122.134 277.333 121.634 277.68 120.98 277.92C120.34 278.147 119.58 278.26 118.7 278.26ZM129.982 278.26C129.275 278.26 128.642 278.18 128.082 278.02C127.522 277.873 127.048 277.66 126.662 277.38C126.288 277.087 126.002 276.74 125.802 276.34C125.602 275.927 125.502 275.473 125.502 274.98L127.062 274.58C127.035 275.047 127.142 275.447 127.382 275.78C127.622 276.1 127.968 276.347 128.422 276.52C128.888 276.693 129.442 276.78 130.082 276.78C130.882 276.78 131.495 276.647 131.922 276.38C132.362 276.113 132.582 275.747 132.582 275.28C132.582 274.907 132.462 274.62 132.222 274.42C131.982 274.207 131.648 274.04 131.222 273.92C130.795 273.787 130.302 273.667 129.742 273.56C129.248 273.453 128.762 273.333 128.282 273.2C127.815 273.067 127.382 272.893 126.982 272.68C126.582 272.453 126.262 272.16 126.022 271.8C125.795 271.44 125.682 270.993 125.682 270.46C125.682 269.833 125.842 269.293 126.162 268.84C126.495 268.387 126.968 268.033 127.582 267.78C128.195 267.527 128.928 267.4 129.782 267.4C130.622 267.4 131.342 267.533 131.942 267.8C132.555 268.053 133.035 268.42 133.382 268.9C133.728 269.367 133.922 269.92 133.962 270.56L132.382 270.96C132.368 270.493 132.248 270.107 132.022 269.8C131.808 269.493 131.502 269.267 131.102 269.12C130.702 268.96 130.242 268.88 129.722 268.88C129.002 268.88 128.435 269.013 128.022 269.28C127.622 269.547 127.422 269.913 127.422 270.38C127.422 270.74 127.542 271.027 127.782 271.24C128.035 271.453 128.368 271.62 128.782 271.74C129.208 271.847 129.688 271.96 130.222 272.08C130.742 272.187 131.242 272.307 131.722 272.44C132.215 272.573 132.655 272.747 133.042 272.96C133.428 273.173 133.735 273.46 133.962 273.82C134.188 274.167 134.302 274.62 134.302 275.18C134.302 275.847 134.122 276.413 133.762 276.88C133.415 277.333 132.915 277.68 132.262 277.92C131.622 278.147 130.862 278.26 129.982 278.26ZM137.287 278V267.66H139.107V278H137.287ZM138.187 265.9C137.773 265.9 137.46 265.813 137.247 265.64C137.033 265.467 136.927 265.207 136.927 264.86C136.927 264.527 137.033 264.273 137.247 264.1C137.46 263.913 137.773 263.82 138.187 263.82C138.613 263.82 138.933 263.907 139.147 264.08C139.36 264.253 139.467 264.513 139.467 264.86C139.467 265.193 139.353 265.453 139.127 265.64C138.913 265.813 138.6 265.9 138.187 265.9ZM147.227 278.26C146.24 278.26 145.367 278.047 144.607 277.62C143.86 277.18 143.273 276.56 142.847 275.76C142.42 274.947 142.207 273.953 142.207 272.78C142.207 271.58 142.427 270.587 142.867 269.8C143.32 269 143.92 268.4 144.667 268C145.427 267.6 146.267 267.4 147.187 267.4C148.133 267.4 148.987 267.613 149.747 268.04C150.507 268.453 151.107 269.067 151.547 269.88C151.987 270.68 152.207 271.673 152.207 272.86C152.207 274.06 151.987 275.06 151.547 275.86C151.107 276.66 150.507 277.26 149.747 277.66C149 278.06 148.16 278.26 147.227 278.26ZM147.287 276.76C147.927 276.76 148.473 276.607 148.927 276.3C149.393 275.993 149.747 275.553 149.987 274.98C150.24 274.393 150.367 273.707 150.367 272.92C150.367 272.107 150.233 271.407 149.967 270.82C149.713 270.22 149.347 269.76 148.867 269.44C148.387 269.107 147.813 268.94 147.147 268.94C146.52 268.94 145.973 269.093 145.507 269.4C145.04 269.693 144.68 270.127 144.427 270.7C144.187 271.26 144.067 271.94 144.067 272.74C144.067 273.993 144.353 274.98 144.927 275.7C145.513 276.407 146.3 276.76 147.287 276.76ZM155.278 278V271.7L155.258 267.66H156.918L156.738 271.06H157.038C157.225 270.22 157.472 269.533 157.778 269C158.098 268.453 158.498 268.053 158.978 267.8C159.472 267.533 160.045 267.4 160.698 267.4C161.845 267.4 162.712 267.813 163.298 268.64C163.885 269.453 164.178 270.68 164.178 272.32V278H162.338V272.46C162.338 271.287 162.158 270.42 161.798 269.86C161.438 269.3 160.898 269.02 160.178 269.02C159.552 269.02 159.012 269.227 158.558 269.64C158.105 270.04 157.752 270.573 157.498 271.24C157.258 271.907 157.125 272.64 157.098 273.44V278H155.278ZM170.112 278.26C169.552 278.26 169.046 278.153 168.592 277.94C168.139 277.713 167.779 277.387 167.512 276.96C167.246 276.52 167.112 275.967 167.112 275.3C167.112 274.807 167.199 274.373 167.372 274C167.559 273.627 167.839 273.307 168.212 273.04C168.599 272.773 169.092 272.553 169.692 272.38C170.292 272.207 171.026 272.06 171.892 271.94C172.386 271.873 172.786 271.807 173.092 271.74C173.412 271.673 173.646 271.567 173.792 271.42C173.939 271.26 174.012 271.027 174.012 270.72C174.012 270.213 173.839 269.787 173.492 269.44C173.146 269.093 172.599 268.92 171.852 268.92C171.466 268.92 171.072 268.987 170.672 269.12C170.272 269.253 169.919 269.48 169.612 269.8C169.319 270.107 169.132 270.54 169.052 271.1L167.372 270.54C167.479 270.06 167.652 269.627 167.892 269.24C168.146 268.853 168.466 268.527 168.852 268.26C169.239 267.98 169.686 267.767 170.192 267.62C170.712 267.473 171.286 267.4 171.912 267.4C172.779 267.4 173.499 267.547 174.072 267.84C174.659 268.133 175.092 268.587 175.372 269.2C175.666 269.8 175.812 270.573 175.812 271.52V273.82C175.812 274.233 175.819 274.687 175.832 275.18C175.859 275.66 175.892 276.147 175.932 276.64C175.972 277.12 176.012 277.573 176.052 278H174.372C174.332 277.573 174.292 277.147 174.252 276.72C174.226 276.293 174.206 275.867 174.192 275.44H173.932C173.732 275.933 173.466 276.393 173.132 276.82C172.799 277.247 172.379 277.593 171.872 277.86C171.379 278.127 170.792 278.26 170.112 278.26ZM170.652 276.78C170.946 276.78 171.239 276.733 171.532 276.64C171.839 276.547 172.139 276.393 172.432 276.18C172.739 275.967 173.026 275.693 173.292 275.36C173.572 275.027 173.819 274.627 174.032 274.16V272.16L174.552 272.26C174.339 272.473 174.052 272.633 173.692 272.74C173.346 272.847 172.959 272.933 172.532 273C172.106 273.067 171.679 273.14 171.252 273.22C170.826 273.287 170.432 273.393 170.072 273.54C169.726 273.673 169.446 273.867 169.232 274.12C169.019 274.373 168.912 274.72 168.912 275.16C168.912 275.693 169.072 276.1 169.392 276.38C169.712 276.647 170.132 276.78 170.652 276.78ZM179.365 278V264H181.185V278H179.365ZM188.626 278.26C187.919 278.26 187.286 278.18 186.726 278.02C186.166 277.873 185.693 277.66 185.306 277.38C184.933 277.087 184.646 276.74 184.446 276.34C184.246 275.927 184.146 275.473 184.146 274.98L185.706 274.58C185.679 275.047 185.786 275.447 186.026 275.78C186.266 276.1 186.613 276.347 187.066 276.52C187.533 276.693 188.086 276.78 188.726 276.78C189.526 276.78 190.139 276.647 190.566 276.38C191.006 276.113 191.226 275.747 191.226 275.28C191.226 274.907 191.106 274.62 190.866 274.42C190.626 274.207 190.293 274.04 189.866 273.92C189.439 273.787 188.946 273.667 188.386 273.56C187.893 273.453 187.406 273.333 186.926 273.2C186.459 273.067 186.026 272.893 185.626 272.68C185.226 272.453 184.906 272.16 184.666 271.8C184.439 271.44 184.326 270.993 184.326 270.46C184.326 269.833 184.486 269.293 184.806 268.84C185.139 268.387 185.613 268.033 186.226 267.78C186.839 267.527 187.573 267.4 188.426 267.4C189.266 267.4 189.986 267.533 190.586 267.8C191.199 268.053 191.679 268.42 192.026 268.9C192.373 269.367 192.566 269.92 192.606 270.56L191.026 270.96C191.013 270.493 190.893 270.107 190.666 269.8C190.453 269.493 190.146 269.267 189.746 269.12C189.346 268.96 188.886 268.88 188.366 268.88C187.646 268.88 187.079 269.013 186.666 269.28C186.266 269.547 186.066 269.913 186.066 270.38C186.066 270.74 186.186 271.027 186.426 271.24C186.679 271.453 187.013 271.62 187.426 271.74C187.853 271.847 188.333 271.96 188.866 272.08C189.386 272.187 189.886 272.307 190.366 272.44C190.859 272.573 191.299 272.747 191.686 272.96C192.073 273.173 192.379 273.46 192.606 273.82C192.833 274.167 192.946 274.62 192.946 275.18C192.946 275.847 192.766 276.413 192.406 276.88C192.059 277.333 191.559 277.68 190.906 277.92C190.266 278.147 189.506 278.26 188.626 278.26ZM196.307 278.24C195.88 278.24 195.56 278.147 195.347 277.96C195.134 277.773 195.027 277.473 195.027 277.06C195.027 276.66 195.134 276.367 195.347 276.18C195.56 275.993 195.88 275.9 196.307 275.9C196.747 275.9 197.074 275.993 197.287 276.18C197.514 276.367 197.627 276.667 197.627 277.08C197.627 277.853 197.187 278.24 196.307 278.24Z" fill="#00373E"/>
</svg>
